G04 #@! TF.FileFunction,Legend,Top*
%FSLAX46Y46*%
G04 Gerber Fmt 4.6, Leading zero omitted, Abs format (unit mm)*
G04 Created by KiCad (PCBNEW 4.0.2-stable) date Monday, 26 September 2016 10:46:00*
%MOMM*%
G01*
G04 APERTURE LIST*
%ADD10C,0.100000*%
%ADD11C,0.150000*%
G04 APERTURE END LIST*
D10*
D11*
X49600000Y-28500000D02*
X50100000Y-28500000D01*
X47600000Y-26000000D02*
G75*
G03X47600000Y-26000000I-2000000J0D01*
G01*
X47600000Y-31000000D02*
G75*
G03X47600000Y-31000000I-2000000J0D01*
G01*
X48100000Y-33500000D02*
X48100000Y-23500000D01*
X43200000Y-33500000D02*
X43200000Y-23500000D01*
X49600000Y-33500000D02*
X49600000Y-23500000D01*
X50100000Y-33500000D02*
X50100000Y-23500000D01*
X50100000Y-23500000D02*
X40300000Y-23500000D01*
X40300000Y-23500000D02*
X40300000Y-33500000D01*
X40300000Y-33500000D02*
X50100000Y-33500000D01*
X34420000Y-17897460D02*
X35436000Y-17897460D01*
X29594000Y-17897460D02*
X28324000Y-17897460D01*
X29848000Y-16627460D02*
X29848000Y-19167460D01*
X30102000Y-16627460D02*
X30102000Y-19167460D01*
X30356000Y-16627460D02*
X30356000Y-19167460D01*
X29594000Y-16627460D02*
X29594000Y-19167460D01*
X30610000Y-16627460D02*
X29340000Y-19167460D01*
X29340000Y-16627460D02*
X30610000Y-19167460D01*
X30610000Y-16627460D02*
X30610000Y-19167460D01*
X29975000Y-16627460D02*
X29975000Y-19167460D01*
X29340000Y-19167460D02*
X29340000Y-16627460D01*
X29340000Y-16627460D02*
X34420000Y-16627460D01*
X34420000Y-16627460D02*
X34420000Y-19167460D01*
X34420000Y-19167460D02*
X29340000Y-19167460D01*
X24380000Y-14502540D02*
X23364000Y-14502540D01*
X29206000Y-14502540D02*
X30476000Y-14502540D01*
X28952000Y-15772540D02*
X28952000Y-13232540D01*
X28698000Y-15772540D02*
X28698000Y-13232540D01*
X28444000Y-15772540D02*
X28444000Y-13232540D01*
X29206000Y-15772540D02*
X29206000Y-13232540D01*
X28190000Y-15772540D02*
X29460000Y-13232540D01*
X29460000Y-15772540D02*
X28190000Y-13232540D01*
X28190000Y-15772540D02*
X28190000Y-13232540D01*
X28825000Y-15772540D02*
X28825000Y-13232540D01*
X29460000Y-13232540D02*
X29460000Y-15772540D01*
X29460000Y-15772540D02*
X24380000Y-15772540D01*
X24380000Y-15772540D02*
X24380000Y-13232540D01*
X24380000Y-13232540D02*
X29460000Y-13232540D01*
X42620000Y-14497460D02*
X43636000Y-14497460D01*
X37794000Y-14497460D02*
X36524000Y-14497460D01*
X38048000Y-13227460D02*
X38048000Y-15767460D01*
X38302000Y-13227460D02*
X38302000Y-15767460D01*
X38556000Y-13227460D02*
X38556000Y-15767460D01*
X37794000Y-13227460D02*
X37794000Y-15767460D01*
X38810000Y-13227460D02*
X37540000Y-15767460D01*
X37540000Y-13227460D02*
X38810000Y-15767460D01*
X38810000Y-13227460D02*
X38810000Y-15767460D01*
X38175000Y-13227460D02*
X38175000Y-15767460D01*
X37540000Y-15767460D02*
X37540000Y-13227460D01*
X37540000Y-13227460D02*
X42620000Y-13227460D01*
X42620000Y-13227460D02*
X42620000Y-15767460D01*
X42620000Y-15767460D02*
X37540000Y-15767460D01*
X19024904Y-31214888D02*
G75*
G03X16000000Y-31230000I-1524904J2484888D01*
G01*
X19000000Y-31230000D02*
X16000000Y-31230000D01*
X20017936Y-28730000D02*
G75*
G03X20017936Y-28730000I-2517936J0D01*
G01*
X31230000Y-43770000D02*
X28690000Y-43770000D01*
X34050000Y-44050000D02*
X32500000Y-44050000D01*
X31230000Y-43770000D02*
X31230000Y-41230000D01*
X32500000Y-40950000D02*
X34050000Y-40950000D01*
X34050000Y-40950000D02*
X34050000Y-44050000D01*
X31230000Y-41230000D02*
X28690000Y-41230000D01*
X28690000Y-41230000D02*
X28690000Y-43770000D01*
X44800000Y-20540000D02*
G75*
G03X46000000Y-21740000I2200000J1000000D01*
G01*
X44800000Y-18540001D02*
G75*
G02X46000000Y-17340000I2200000J-999999D01*
G01*
X47996990Y-21727695D02*
G75*
G03X48700000Y-21240000I-996990J2187695D01*
G01*
X47996990Y-17352305D02*
G75*
G02X48700000Y-17840000I-996990J-2187695D01*
G01*
X48700000Y-21240000D02*
X48700000Y-17840000D01*
X40470000Y-23540000D02*
X40470000Y-28620000D01*
X40470000Y-28620000D02*
X37930000Y-28620000D01*
X37930000Y-28620000D02*
X37930000Y-23540000D01*
X37930000Y-23540000D02*
X40470000Y-23540000D01*
X39200000Y-23540000D02*
X39200000Y-22270000D01*
X39200000Y-28620000D02*
X39200000Y-29890000D01*
X18770000Y-36040000D02*
X18770000Y-41120000D01*
X18770000Y-41120000D02*
X16230000Y-41120000D01*
X16230000Y-41120000D02*
X16230000Y-36040000D01*
X16230000Y-36040000D02*
X18770000Y-36040000D01*
X17500000Y-36040000D02*
X17500000Y-34770000D01*
X17500000Y-41120000D02*
X17500000Y-42390000D01*
X41532000Y-39984000D02*
X40262000Y-39984000D01*
X40782700Y-40771400D02*
X41036700Y-40733300D01*
X41036700Y-40733300D02*
X41316100Y-40555500D01*
X41316100Y-40555500D02*
X41532000Y-40238000D01*
X41532000Y-40238000D02*
X41544700Y-39793500D01*
X41544700Y-39793500D02*
X41341500Y-39437900D01*
X41341500Y-39437900D02*
X41049400Y-39260100D01*
X41049400Y-39260100D02*
X40731900Y-39209300D01*
X40731900Y-39209300D02*
X40325500Y-39310900D01*
X40325500Y-39310900D02*
X40071500Y-39653800D01*
X40071500Y-39653800D02*
X39982600Y-39831600D01*
X37722000Y-48366000D02*
X37722000Y-38714000D01*
X40770000Y-38714000D02*
X42040000Y-38714000D01*
X42040000Y-38714000D02*
X42040000Y-48366000D01*
X42040000Y-48366000D02*
X36960000Y-48366000D01*
X36960000Y-38714000D02*
X39500000Y-38714000D01*
X39500000Y-38714000D02*
X40770000Y-38714000D01*
X47200000Y-41040000D02*
G75*
G03X46000000Y-39840000I-2200000J-1000000D01*
G01*
X47200000Y-43039999D02*
G75*
G02X46000000Y-44240000I-2200000J999999D01*
G01*
X44003010Y-39852305D02*
G75*
G03X43300000Y-40340000I996990J-2187695D01*
G01*
X44003010Y-44227695D02*
G75*
G02X43300000Y-43740000I996990J2187695D01*
G01*
X43300000Y-40340000D02*
X43300000Y-43740000D01*
X27135000Y-20205000D02*
X27135000Y-21475000D01*
X34485000Y-20205000D02*
X34485000Y-21475000D01*
X34485000Y-40035000D02*
X34485000Y-38765000D01*
X27135000Y-40035000D02*
X27135000Y-38765000D01*
X27135000Y-20205000D02*
X34485000Y-20205000D01*
X27135000Y-40035000D02*
X34485000Y-40035000D01*
X27135000Y-21475000D02*
X26200000Y-21475000D01*
X44250000Y-34250000D02*
X47250000Y-34250000D01*
X47250000Y-36750000D02*
X44250000Y-36750000D01*
X44750000Y-46750000D02*
X47750000Y-46750000D01*
X47750000Y-49250000D02*
X44750000Y-49250000D01*
X51852381Y-29238095D02*
X50852381Y-29238095D01*
X50852381Y-28857142D01*
X50900000Y-28761904D01*
X50947619Y-28714285D01*
X51042857Y-28666666D01*
X51185714Y-28666666D01*
X51280952Y-28714285D01*
X51328571Y-28761904D01*
X51376190Y-28857142D01*
X51376190Y-29238095D01*
X51852381Y-27714285D02*
X51852381Y-28285714D01*
X51852381Y-28000000D02*
X50852381Y-28000000D01*
X50995238Y-28095238D01*
X51090476Y-28190476D01*
X51138095Y-28285714D01*
X31461905Y-18352381D02*
X31461905Y-17352381D01*
X31700000Y-17352381D01*
X31842858Y-17400000D01*
X31938096Y-17495238D01*
X31985715Y-17590476D01*
X32033334Y-17780952D01*
X32033334Y-17923810D01*
X31985715Y-18114286D01*
X31938096Y-18209524D01*
X31842858Y-18304762D01*
X31700000Y-18352381D01*
X31461905Y-18352381D01*
X32985715Y-18352381D02*
X32414286Y-18352381D01*
X32700000Y-18352381D02*
X32700000Y-17352381D01*
X32604762Y-17495238D01*
X32509524Y-17590476D01*
X32414286Y-17638095D01*
X25661905Y-14952381D02*
X25661905Y-13952381D01*
X25900000Y-13952381D01*
X26042858Y-14000000D01*
X26138096Y-14095238D01*
X26185715Y-14190476D01*
X26233334Y-14380952D01*
X26233334Y-14523810D01*
X26185715Y-14714286D01*
X26138096Y-14809524D01*
X26042858Y-14904762D01*
X25900000Y-14952381D01*
X25661905Y-14952381D01*
X26614286Y-14047619D02*
X26661905Y-14000000D01*
X26757143Y-13952381D01*
X26995239Y-13952381D01*
X27090477Y-14000000D01*
X27138096Y-14047619D01*
X27185715Y-14142857D01*
X27185715Y-14238095D01*
X27138096Y-14380952D01*
X26566667Y-14952381D01*
X27185715Y-14952381D01*
X39761905Y-15052381D02*
X39761905Y-14052381D01*
X40000000Y-14052381D01*
X40142858Y-14100000D01*
X40238096Y-14195238D01*
X40285715Y-14290476D01*
X40333334Y-14480952D01*
X40333334Y-14623810D01*
X40285715Y-14814286D01*
X40238096Y-14909524D01*
X40142858Y-15004762D01*
X40000000Y-15052381D01*
X39761905Y-15052381D01*
X40666667Y-14052381D02*
X41285715Y-14052381D01*
X40952381Y-14433333D01*
X41095239Y-14433333D01*
X41190477Y-14480952D01*
X41238096Y-14528571D01*
X41285715Y-14623810D01*
X41285715Y-14861905D01*
X41238096Y-14957143D01*
X41190477Y-15004762D01*
X41095239Y-15052381D01*
X40809524Y-15052381D01*
X40714286Y-15004762D01*
X40666667Y-14957143D01*
X22016381Y-29214095D02*
X21016381Y-29214095D01*
X21016381Y-28976000D01*
X21064000Y-28833142D01*
X21159238Y-28737904D01*
X21254476Y-28690285D01*
X21444952Y-28642666D01*
X21587810Y-28642666D01*
X21778286Y-28690285D01*
X21873524Y-28737904D01*
X21968762Y-28833142D01*
X22016381Y-28976000D01*
X22016381Y-29214095D01*
X21349714Y-27785523D02*
X22016381Y-27785523D01*
X20968762Y-28023619D02*
X21683048Y-28261714D01*
X21683048Y-27642666D01*
X19857381Y-32166905D02*
X18857381Y-32166905D01*
X19857381Y-31595476D02*
X19285952Y-32024048D01*
X18857381Y-31595476D02*
X19428810Y-32166905D01*
X30761905Y-45352381D02*
X30761905Y-44352381D01*
X31142858Y-44352381D01*
X31238096Y-44400000D01*
X31285715Y-44447619D01*
X31333334Y-44542857D01*
X31333334Y-44685714D01*
X31285715Y-44780952D01*
X31238096Y-44828571D01*
X31142858Y-44876190D01*
X30761905Y-44876190D01*
X31714286Y-44447619D02*
X31761905Y-44400000D01*
X31857143Y-44352381D01*
X32095239Y-44352381D01*
X32190477Y-44400000D01*
X32238096Y-44447619D01*
X32285715Y-44542857D01*
X32285715Y-44638095D01*
X32238096Y-44780952D01*
X31666667Y-45352381D01*
X32285715Y-45352381D01*
X47947619Y-19375238D02*
X47900000Y-19470476D01*
X47804762Y-19565714D01*
X47661905Y-19708571D01*
X47614286Y-19803810D01*
X47614286Y-19899048D01*
X47852381Y-19851429D02*
X47804762Y-19946667D01*
X47709524Y-20041905D01*
X47519048Y-20089524D01*
X47185714Y-20089524D01*
X46995238Y-20041905D01*
X46900000Y-19946667D01*
X46852381Y-19851429D01*
X46852381Y-19660952D01*
X46900000Y-19565714D01*
X46995238Y-19470476D01*
X47185714Y-19422857D01*
X47519048Y-19422857D01*
X47709524Y-19470476D01*
X47804762Y-19565714D01*
X47852381Y-19660952D01*
X47852381Y-19851429D01*
X47852381Y-18470476D02*
X47852381Y-19041905D01*
X47852381Y-18756191D02*
X46852381Y-18756191D01*
X46995238Y-18851429D01*
X47090476Y-18946667D01*
X47138095Y-19041905D01*
X39852381Y-26066666D02*
X39376190Y-26400000D01*
X39852381Y-26638095D02*
X38852381Y-26638095D01*
X38852381Y-26257142D01*
X38900000Y-26161904D01*
X38947619Y-26114285D01*
X39042857Y-26066666D01*
X39185714Y-26066666D01*
X39280952Y-26114285D01*
X39328571Y-26161904D01*
X39376190Y-26257142D01*
X39376190Y-26638095D01*
X39852381Y-25114285D02*
X39852381Y-25685714D01*
X39852381Y-25400000D02*
X38852381Y-25400000D01*
X38995238Y-25495238D01*
X39090476Y-25590476D01*
X39138095Y-25685714D01*
X17852381Y-38866666D02*
X17376190Y-39200000D01*
X17852381Y-39438095D02*
X16852381Y-39438095D01*
X16852381Y-39057142D01*
X16900000Y-38961904D01*
X16947619Y-38914285D01*
X17042857Y-38866666D01*
X17185714Y-38866666D01*
X17280952Y-38914285D01*
X17328571Y-38961904D01*
X17376190Y-39057142D01*
X17376190Y-39438095D01*
X16947619Y-38485714D02*
X16900000Y-38438095D01*
X16852381Y-38342857D01*
X16852381Y-38104761D01*
X16900000Y-38009523D01*
X16947619Y-37961904D01*
X17042857Y-37914285D01*
X17138095Y-37914285D01*
X17280952Y-37961904D01*
X17852381Y-38533333D01*
X17852381Y-37914285D01*
X39104762Y-38252381D02*
X38771428Y-37776190D01*
X38533333Y-38252381D02*
X38533333Y-37252381D01*
X38914286Y-37252381D01*
X39009524Y-37300000D01*
X39057143Y-37347619D01*
X39104762Y-37442857D01*
X39104762Y-37585714D01*
X39057143Y-37680952D01*
X39009524Y-37728571D01*
X38914286Y-37776190D01*
X38533333Y-37776190D01*
X39390476Y-37252381D02*
X39723809Y-38252381D01*
X40057143Y-37252381D01*
X40914286Y-38252381D02*
X40342857Y-38252381D01*
X40628571Y-38252381D02*
X40628571Y-37252381D01*
X40533333Y-37395238D01*
X40438095Y-37490476D01*
X40342857Y-37538095D01*
X45052381Y-42861905D02*
X45861905Y-42861905D01*
X45957143Y-42814286D01*
X46004762Y-42766667D01*
X46052381Y-42671429D01*
X46052381Y-42480952D01*
X46004762Y-42385714D01*
X45957143Y-42338095D01*
X45861905Y-42290476D01*
X45052381Y-42290476D01*
X46052381Y-41290476D02*
X46052381Y-41861905D01*
X46052381Y-41576191D02*
X45052381Y-41576191D01*
X45195238Y-41671429D01*
X45290476Y-41766667D01*
X45338095Y-41861905D01*
X29938095Y-27852381D02*
X29938095Y-28661905D01*
X29985714Y-28757143D01*
X30033333Y-28804762D01*
X30128571Y-28852381D01*
X30319048Y-28852381D01*
X30414286Y-28804762D01*
X30461905Y-28757143D01*
X30509524Y-28661905D01*
X30509524Y-27852381D01*
X30938095Y-27947619D02*
X30985714Y-27900000D01*
X31080952Y-27852381D01*
X31319048Y-27852381D01*
X31414286Y-27900000D01*
X31461905Y-27947619D01*
X31509524Y-28042857D01*
X31509524Y-28138095D01*
X31461905Y-28280952D01*
X30890476Y-28852381D01*
X31509524Y-28852381D01*
X42633334Y-36257143D02*
X42585715Y-36304762D01*
X42442858Y-36352381D01*
X42347620Y-36352381D01*
X42204762Y-36304762D01*
X42109524Y-36209524D01*
X42061905Y-36114286D01*
X42014286Y-35923810D01*
X42014286Y-35780952D01*
X42061905Y-35590476D01*
X42109524Y-35495238D01*
X42204762Y-35400000D01*
X42347620Y-35352381D01*
X42442858Y-35352381D01*
X42585715Y-35400000D01*
X42633334Y-35447619D01*
X43585715Y-36352381D02*
X43014286Y-36352381D01*
X43300000Y-36352381D02*
X43300000Y-35352381D01*
X43204762Y-35495238D01*
X43109524Y-35590476D01*
X43014286Y-35638095D01*
X42833334Y-48457143D02*
X42785715Y-48504762D01*
X42642858Y-48552381D01*
X42547620Y-48552381D01*
X42404762Y-48504762D01*
X42309524Y-48409524D01*
X42261905Y-48314286D01*
X42214286Y-48123810D01*
X42214286Y-47980952D01*
X42261905Y-47790476D01*
X42309524Y-47695238D01*
X42404762Y-47600000D01*
X42547620Y-47552381D01*
X42642858Y-47552381D01*
X42785715Y-47600000D01*
X42833334Y-47647619D01*
X43214286Y-47647619D02*
X43261905Y-47600000D01*
X43357143Y-47552381D01*
X43595239Y-47552381D01*
X43690477Y-47600000D01*
X43738096Y-47647619D01*
X43785715Y-47742857D01*
X43785715Y-47838095D01*
X43738096Y-47980952D01*
X43166667Y-48552381D01*
X43785715Y-48552381D01*
M02*
