G04 #@! TF.FileFunction,Copper,L2,Bot,Signal*
%FSLAX46Y46*%
G04 Gerber Fmt 4.6, Leading zero omitted, Abs format (unit mm)*
G04 Created by KiCad (PCBNEW 4.0.2-stable) date Sunday, 25 September 2016 16:43:57*
%MOMM*%
G01*
G04 APERTURE LIST*
%ADD10C,0.100000*%
%ADD11R,2.500000X2.500000*%
%ADD12C,2.500000*%
%ADD13C,1.998980*%
%ADD14R,1.998980X1.998980*%
%ADD15R,2.000000X1.900000*%
%ADD16C,1.900000*%
%ADD17R,2.032000X2.032000*%
%ADD18O,2.032000X2.032000*%
%ADD19C,1.524000*%
%ADD20O,1.600000X1.600000*%
%ADD21R,1.300000X1.300000*%
%ADD22C,1.300000*%
%ADD23C,0.300000*%
G04 APERTURE END LIST*
D10*
D11*
X45500000Y-31000000D03*
D12*
X45500000Y-26000000D03*
D13*
X36960000Y-17897460D03*
D14*
X26800000Y-17897460D03*
D13*
X21840000Y-14502540D03*
D14*
X32000000Y-14502540D03*
D13*
X45160000Y-14497460D03*
D14*
X35000000Y-14497460D03*
D15*
X17500000Y-30000000D03*
D16*
X17500000Y-27460000D03*
D17*
X32500000Y-42500000D03*
D18*
X29960000Y-42500000D03*
D19*
X44460000Y-19540000D03*
X47000000Y-17000000D03*
X47000000Y-22080000D03*
D13*
X39200000Y-21000000D03*
X39200000Y-31160000D03*
X17500000Y-33500000D03*
X17500000Y-43660000D03*
D19*
X39500000Y-43540000D03*
X39500000Y-46080000D03*
X39500000Y-41000000D03*
X47540000Y-42040000D03*
X45000000Y-44580000D03*
X45000000Y-39500000D03*
D20*
X27000000Y-22500000D03*
X27000000Y-25040000D03*
X27000000Y-27580000D03*
X27000000Y-30120000D03*
X27000000Y-32660000D03*
X27000000Y-35200000D03*
X27000000Y-37740000D03*
X34620000Y-37740000D03*
X34620000Y-35200000D03*
X34620000Y-32660000D03*
X34620000Y-30120000D03*
X34620000Y-27580000D03*
X34620000Y-25040000D03*
X34620000Y-22500000D03*
D21*
X44500000Y-35500000D03*
D22*
X47000000Y-35500000D03*
D21*
X45000000Y-48000000D03*
D22*
X47500000Y-48000000D03*
D23*
X45500000Y-26000000D02*
X43250000Y-28250000D01*
X44500000Y-35500000D02*
X44500000Y-34550000D01*
X44500000Y-34550000D02*
X43250000Y-33300000D01*
X43250000Y-33300000D02*
X43250000Y-28250000D01*
X37000000Y-22000000D02*
X37000000Y-17937460D01*
X43250000Y-28250000D02*
X37000000Y-22000000D01*
X37000000Y-17937460D02*
X36960000Y-17897460D01*
X44500000Y-35500000D02*
X44500000Y-35000000D01*
X44500000Y-35500000D02*
X44500000Y-39000000D01*
X44500000Y-39000000D02*
X45000000Y-39500000D01*
X39500000Y-41000000D02*
X43500000Y-41000000D01*
X43500000Y-41000000D02*
X45000000Y-39500000D01*
X47761999Y-22841999D02*
X47761999Y-31000000D01*
X47761999Y-31000000D02*
X47761999Y-34738001D01*
X45500000Y-31000000D02*
X47761999Y-31000000D01*
X47000000Y-22080000D02*
X47761999Y-22841999D01*
X47761999Y-34738001D02*
X47649999Y-34850001D01*
X47649999Y-34850001D02*
X47000000Y-35500000D01*
X27000000Y-37740000D02*
X27000000Y-48000000D01*
X39500000Y-46080000D02*
X39500000Y-48000000D01*
X47540000Y-42040000D02*
X47540000Y-36040000D01*
X47540000Y-36040000D02*
X47000000Y-35500000D01*
X47500000Y-48000000D02*
X47500000Y-42080000D01*
X47500000Y-42080000D02*
X47540000Y-42040000D01*
X17500000Y-43660000D02*
X17500000Y-45000000D01*
X46000000Y-49500000D02*
X47540000Y-47960000D01*
X43000000Y-49500000D02*
X46000000Y-49500000D01*
X41500000Y-48000000D02*
X43000000Y-49500000D01*
X20500000Y-48000000D02*
X27000000Y-48000000D01*
X27000000Y-48000000D02*
X39500000Y-48000000D01*
X39500000Y-48000000D02*
X41500000Y-48000000D01*
X17500000Y-45000000D02*
X20500000Y-48000000D01*
X34620000Y-37740000D02*
X34620000Y-38820000D01*
X42720000Y-42300000D02*
X45000000Y-44580000D01*
X38100000Y-42300000D02*
X42720000Y-42300000D01*
X34620000Y-38820000D02*
X38100000Y-42300000D01*
X34620000Y-22500000D02*
X36300000Y-22500000D01*
X36300000Y-22500000D02*
X42500000Y-28700000D01*
X39160000Y-37740000D02*
X34620000Y-37740000D01*
X42500000Y-34400000D02*
X39160000Y-37740000D01*
X42500000Y-28700000D02*
X42500000Y-34400000D01*
X17500000Y-27460000D02*
X22040000Y-27460000D01*
X22040000Y-27460000D02*
X27000000Y-22500000D01*
X27000000Y-22500000D02*
X34620000Y-22500000D01*
X45000000Y-48000000D02*
X45000000Y-44580000D01*
X21840000Y-14502540D02*
X21840000Y-16740000D01*
X22997460Y-17897460D02*
X26800000Y-17897460D01*
X21840000Y-16740000D02*
X22997460Y-17897460D01*
X35000000Y-14497460D02*
X32005080Y-14497460D01*
X32005080Y-14497460D02*
X32000000Y-14502540D01*
X47000000Y-17000000D02*
X45160000Y-15160000D01*
X45160000Y-15160000D02*
X45160000Y-14497460D01*
X45500000Y-14837460D02*
X45160000Y-14497460D01*
X17500000Y-30000000D02*
X17500000Y-33500000D01*
X32500000Y-42500000D02*
X32500000Y-34780000D01*
X32500000Y-34780000D02*
X34620000Y-32660000D01*
X27000000Y-32660000D02*
X27000000Y-35200000D01*
X29960000Y-42500000D02*
X29960000Y-38160000D01*
X29960000Y-38160000D02*
X27000000Y-35200000D01*
X39200000Y-21000000D02*
X43000000Y-21000000D01*
X43000000Y-21000000D02*
X44460000Y-19540000D01*
X39200000Y-31160000D02*
X36140000Y-31160000D01*
X28280000Y-31400000D02*
X27000000Y-30120000D01*
X35900000Y-31400000D02*
X28280000Y-31400000D01*
X36140000Y-31160000D02*
X35900000Y-31400000D01*
X27000000Y-25040000D02*
X32060000Y-25040000D01*
X37840000Y-43540000D02*
X39500000Y-43540000D01*
X33200000Y-38900000D02*
X37840000Y-43540000D01*
X33200000Y-37200000D02*
X33200000Y-38900000D01*
X33900000Y-36500000D02*
X33200000Y-37200000D01*
X39200000Y-36500000D02*
X33900000Y-36500000D01*
X41700000Y-34000000D02*
X39200000Y-36500000D01*
X41700000Y-29300000D02*
X41700000Y-34000000D01*
X36200000Y-23800000D02*
X41700000Y-29300000D01*
X33300000Y-23800000D02*
X36200000Y-23800000D01*
X32060000Y-25040000D02*
X33300000Y-23800000D01*
X34620000Y-35200000D02*
X39200000Y-35200000D01*
X28320000Y-28900000D02*
X27000000Y-27580000D01*
X40000000Y-28900000D02*
X28320000Y-28900000D01*
X40800000Y-29700000D02*
X40000000Y-28900000D01*
X40800000Y-33600000D02*
X40800000Y-29700000D01*
X39200000Y-35200000D02*
X40800000Y-33600000D01*
M02*
