M48
;DRILL file {KiCad 4.0.2-stable} date Friday, 23 September 2016 15:27:34
;FORMAT={-:-/ absolute / metric / decimal}
FMAT,2
METRIC,TZ
T1C0.800
T2C0.800
T3C0.813
T4C1.001
T5C1.016
T6C1.200
T7C1.270
%
G90
G05
M71
T1
X27.Y-22.5
X27.Y-25.04
X27.Y-27.58
X27.Y-30.12
X27.Y-32.66
X27.Y-35.2
X27.Y-37.74
X34.62Y-22.5
X34.62Y-25.04
X34.62Y-27.58
X34.62Y-30.12
X34.62Y-32.66
X34.62Y-35.2
X34.62Y-37.74
X42.96Y-20.96
X44.5Y-35.5
X45.Y-39.5
X45.Y-44.58
X45.Y-48.
X45.5Y-18.42
X45.5Y-23.5
X47.54Y-42.04
T2
X47.Y-35.5
X47.5Y-48.
T3
X39.5Y-41.
X39.5Y-43.54
X39.5Y-46.08
T4
X17.5Y-27.46
X17.5Y-30.
X17.5Y-33.5
X17.5Y-43.66
X26.8Y-17.897
X32.Y-14.503
X35.Y-14.497
X39.2Y-21.
X39.2Y-31.16
T5
X29.96Y-42.5
X32.5Y-42.5
T6
X45.5Y-27.5
X45.5Y-31.
T7
X21.84Y-14.503
X36.96Y-17.897
X45.16Y-14.497
T0
M30
