G04 #@! TF.FileFunction,Soldermask,Top*
%FSLAX46Y46*%
G04 Gerber Fmt 4.6, Leading zero omitted, Abs format (unit mm)*
G04 Created by KiCad (PCBNEW 4.0.2-stable) date Monday, 26 September 2016 10:46:00*
%MOMM*%
G01*
G04 APERTURE LIST*
%ADD10C,0.100000*%
%ADD11R,2.900000X2.900000*%
%ADD12C,2.900000*%
%ADD13C,2.398980*%
%ADD14R,2.398980X2.398980*%
%ADD15R,2.400000X2.300000*%
%ADD16C,2.300000*%
%ADD17R,2.432000X2.432000*%
%ADD18O,2.432000X2.432000*%
%ADD19C,1.924000*%
%ADD20O,2.000000X2.000000*%
%ADD21R,1.700000X1.700000*%
%ADD22C,1.700000*%
G04 APERTURE END LIST*
D10*
D11*
X45500000Y-31000000D03*
D12*
X45500000Y-26000000D03*
D13*
X36960000Y-17897460D03*
D14*
X26800000Y-17897460D03*
D13*
X21840000Y-14502540D03*
D14*
X32000000Y-14502540D03*
D13*
X45160000Y-14497460D03*
D14*
X35000000Y-14497460D03*
D15*
X17500000Y-30000000D03*
D16*
X17500000Y-27460000D03*
D17*
X32500000Y-42500000D03*
D18*
X29960000Y-42500000D03*
D19*
X44460000Y-19540000D03*
X47000000Y-17000000D03*
X47000000Y-22080000D03*
D13*
X39200000Y-21000000D03*
X39200000Y-31160000D03*
X17500000Y-33500000D03*
X17500000Y-43660000D03*
D19*
X39500000Y-43540000D03*
X39500000Y-46080000D03*
X39500000Y-41000000D03*
X47540000Y-42040000D03*
X45000000Y-44580000D03*
X45000000Y-39500000D03*
D20*
X27000000Y-22500000D03*
X27000000Y-25040000D03*
X27000000Y-27580000D03*
X27000000Y-30120000D03*
X27000000Y-32660000D03*
X27000000Y-35200000D03*
X27000000Y-37740000D03*
X34620000Y-37740000D03*
X34620000Y-35200000D03*
X34620000Y-32660000D03*
X34620000Y-30120000D03*
X34620000Y-27580000D03*
X34620000Y-25040000D03*
X34620000Y-22500000D03*
D21*
X44500000Y-35500000D03*
D22*
X47000000Y-35500000D03*
D21*
X45000000Y-48000000D03*
D22*
X47500000Y-48000000D03*
M02*
