G04 #@! TF.FileFunction,Legend,Top*
%FSLAX46Y46*%
G04 Gerber Fmt 4.6, Leading zero omitted, Abs format (unit mm)*
G04 Created by KiCad (PCBNEW 4.0.2-stable) date Friday, 30 September 2016 18:58:37*
%MOMM*%
G01*
G04 APERTURE LIST*
%ADD10C,0.100000*%
%ADD11C,0.150000*%
G04 APERTURE END LIST*
D10*
D11*
X57499000Y-27825000D02*
X52501000Y-27825000D01*
X57491000Y-27965000D02*
X52509000Y-27965000D01*
X57475000Y-28105000D02*
X55095000Y-28105000D01*
X54905000Y-28105000D02*
X52525000Y-28105000D01*
X57451000Y-28245000D02*
X55490000Y-28245000D01*
X54510000Y-28245000D02*
X52549000Y-28245000D01*
X57418000Y-28385000D02*
X55657000Y-28385000D01*
X54343000Y-28385000D02*
X52582000Y-28385000D01*
X57377000Y-28525000D02*
X55764000Y-28525000D01*
X54236000Y-28525000D02*
X52623000Y-28525000D01*
X57327000Y-28665000D02*
X55835000Y-28665000D01*
X54165000Y-28665000D02*
X52673000Y-28665000D01*
X57266000Y-28805000D02*
X55879000Y-28805000D01*
X54121000Y-28805000D02*
X52734000Y-28805000D01*
X57196000Y-28945000D02*
X55898000Y-28945000D01*
X54102000Y-28945000D02*
X52804000Y-28945000D01*
X57114000Y-29085000D02*
X55896000Y-29085000D01*
X54104000Y-29085000D02*
X52886000Y-29085000D01*
X57019000Y-29225000D02*
X55871000Y-29225000D01*
X54129000Y-29225000D02*
X52981000Y-29225000D01*
X56908000Y-29365000D02*
X55823000Y-29365000D01*
X54177000Y-29365000D02*
X53092000Y-29365000D01*
X56780000Y-29505000D02*
X55745000Y-29505000D01*
X54255000Y-29505000D02*
X53220000Y-29505000D01*
X56631000Y-29645000D02*
X55628000Y-29645000D01*
X54372000Y-29645000D02*
X53369000Y-29645000D01*
X56452000Y-29785000D02*
X55440000Y-29785000D01*
X54560000Y-29785000D02*
X53548000Y-29785000D01*
X56233000Y-29925000D02*
X53767000Y-29925000D01*
X55944000Y-30065000D02*
X54056000Y-30065000D01*
X55472000Y-30205000D02*
X54528000Y-30205000D01*
X55900000Y-29000000D02*
G75*
G03X55900000Y-29000000I-900000J0D01*
G01*
X57537500Y-27750000D02*
G75*
G03X57537500Y-27750000I-2537500J0D01*
G01*
X70366520Y-25997460D02*
X71763520Y-25997460D01*
X65921520Y-25997460D02*
X64397520Y-25997460D01*
X66302520Y-25235460D02*
X66302520Y-26759460D01*
X66048520Y-25235460D02*
X66048520Y-26759460D01*
X65794520Y-25997460D02*
X65794520Y-26759460D01*
X65794520Y-26759460D02*
X70366520Y-26759460D01*
X70366520Y-26759460D02*
X70366520Y-25235460D01*
X70366520Y-25235460D02*
X65794520Y-25235460D01*
X65794520Y-25235460D02*
X65794520Y-25997460D01*
X68633480Y-21502540D02*
X67236480Y-21502540D01*
X73078480Y-21502540D02*
X74602480Y-21502540D01*
X72697480Y-22264540D02*
X72697480Y-20740540D01*
X72951480Y-22264540D02*
X72951480Y-20740540D01*
X73205480Y-21502540D02*
X73205480Y-20740540D01*
X73205480Y-20740540D02*
X68633480Y-20740540D01*
X68633480Y-20740540D02*
X68633480Y-22264540D01*
X68633480Y-22264540D02*
X73205480Y-22264540D01*
X73205480Y-22264540D02*
X73205480Y-21502540D01*
X68633480Y-30002540D02*
X67236480Y-30002540D01*
X73078480Y-30002540D02*
X74602480Y-30002540D01*
X72697480Y-30764540D02*
X72697480Y-29240540D01*
X72951480Y-30764540D02*
X72951480Y-29240540D01*
X73205480Y-30002540D02*
X73205480Y-29240540D01*
X73205480Y-29240540D02*
X68633480Y-29240540D01*
X68633480Y-29240540D02*
X68633480Y-30764540D01*
X68633480Y-30764540D02*
X73205480Y-30764540D01*
X73205480Y-30764540D02*
X73205480Y-30002540D01*
X70366520Y-34497460D02*
X71763520Y-34497460D01*
X65921520Y-34497460D02*
X64397520Y-34497460D01*
X66302520Y-33735460D02*
X66302520Y-35259460D01*
X66048520Y-33735460D02*
X66048520Y-35259460D01*
X65794520Y-34497460D02*
X65794520Y-35259460D01*
X65794520Y-35259460D02*
X70366520Y-35259460D01*
X70366520Y-35259460D02*
X70366520Y-33735460D01*
X70366520Y-33735460D02*
X65794520Y-33735460D01*
X65794520Y-33735460D02*
X65794520Y-34497460D01*
X29633480Y-23002540D02*
X28236480Y-23002540D01*
X34078480Y-23002540D02*
X35602480Y-23002540D01*
X33697480Y-23764540D02*
X33697480Y-22240540D01*
X33951480Y-23764540D02*
X33951480Y-22240540D01*
X34205480Y-23002540D02*
X34205480Y-22240540D01*
X34205480Y-22240540D02*
X29633480Y-22240540D01*
X29633480Y-22240540D02*
X29633480Y-23764540D01*
X29633480Y-23764540D02*
X34205480Y-23764540D01*
X34205480Y-23764540D02*
X34205480Y-23002540D01*
X57460000Y-41770000D02*
X52380000Y-41770000D01*
X52380000Y-41770000D02*
X52380000Y-39230000D01*
X52380000Y-39230000D02*
X57460000Y-39230000D01*
X57460000Y-39230000D02*
X57460000Y-41770000D01*
X57460000Y-40500000D02*
X58730000Y-40500000D01*
X52380000Y-40500000D02*
X51110000Y-40500000D01*
X46460000Y-38270000D02*
X41380000Y-38270000D01*
X41380000Y-38270000D02*
X41380000Y-35730000D01*
X41380000Y-35730000D02*
X46460000Y-35730000D01*
X46460000Y-35730000D02*
X46460000Y-38270000D01*
X46460000Y-37000000D02*
X47730000Y-37000000D01*
X41380000Y-37000000D02*
X40110000Y-37000000D01*
X16540000Y-37730000D02*
X21620000Y-37730000D01*
X21620000Y-37730000D02*
X21620000Y-40270000D01*
X21620000Y-40270000D02*
X16540000Y-40270000D01*
X16540000Y-40270000D02*
X16540000Y-37730000D01*
X16540000Y-39000000D02*
X15270000Y-39000000D01*
X21620000Y-39000000D02*
X22890000Y-39000000D01*
X29540000Y-18230000D02*
X34620000Y-18230000D01*
X34620000Y-18230000D02*
X34620000Y-20770000D01*
X34620000Y-20770000D02*
X29540000Y-20770000D01*
X29540000Y-20770000D02*
X29540000Y-18230000D01*
X29540000Y-19500000D02*
X28270000Y-19500000D01*
X34620000Y-19500000D02*
X35890000Y-19500000D01*
X34460000Y-27770000D02*
X29380000Y-27770000D01*
X29380000Y-27770000D02*
X29380000Y-25230000D01*
X29380000Y-25230000D02*
X34460000Y-25230000D01*
X34460000Y-25230000D02*
X34460000Y-27770000D01*
X34460000Y-26500000D02*
X35730000Y-26500000D01*
X29380000Y-26500000D02*
X28110000Y-26500000D01*
X26984000Y-33468000D02*
X26984000Y-34738000D01*
X27771400Y-34217300D02*
X27733300Y-33963300D01*
X27733300Y-33963300D02*
X27555500Y-33683900D01*
X27555500Y-33683900D02*
X27238000Y-33468000D01*
X27238000Y-33468000D02*
X26793500Y-33455300D01*
X26793500Y-33455300D02*
X26437900Y-33658500D01*
X26437900Y-33658500D02*
X26260100Y-33950600D01*
X26260100Y-33950600D02*
X26209300Y-34268100D01*
X26209300Y-34268100D02*
X26310900Y-34674500D01*
X26310900Y-34674500D02*
X26653800Y-34928500D01*
X26653800Y-34928500D02*
X26831600Y-35017400D01*
X35366000Y-37278000D02*
X25714000Y-37278000D01*
X25714000Y-34230000D02*
X25714000Y-32960000D01*
X25714000Y-32960000D02*
X35366000Y-32960000D01*
X35366000Y-32960000D02*
X35366000Y-38040000D01*
X25714000Y-38040000D02*
X25714000Y-35500000D01*
X25714000Y-35500000D02*
X25714000Y-34230000D01*
X46295000Y-40135000D02*
X45025000Y-40135000D01*
X46295000Y-47485000D02*
X45025000Y-47485000D01*
X26465000Y-47485000D02*
X27735000Y-47485000D01*
X26465000Y-40135000D02*
X27735000Y-40135000D01*
X46295000Y-40135000D02*
X46295000Y-47485000D01*
X26465000Y-40135000D02*
X26465000Y-47485000D01*
X45025000Y-40135000D02*
X45025000Y-39200000D01*
X41205000Y-31365000D02*
X42475000Y-31365000D01*
X41205000Y-24015000D02*
X42475000Y-24015000D01*
X50875000Y-24015000D02*
X49605000Y-24015000D01*
X50875000Y-31365000D02*
X49605000Y-31365000D01*
X41205000Y-31365000D02*
X41205000Y-24015000D01*
X50875000Y-31365000D02*
X50875000Y-24015000D01*
X42475000Y-31365000D02*
X42475000Y-32300000D01*
X23795000Y-26635000D02*
X22525000Y-26635000D01*
X23795000Y-33985000D02*
X22525000Y-33985000D01*
X14125000Y-33985000D02*
X15395000Y-33985000D01*
X14125000Y-26635000D02*
X15395000Y-26635000D01*
X23795000Y-26635000D02*
X23795000Y-33985000D01*
X14125000Y-26635000D02*
X14125000Y-33985000D01*
X22525000Y-26635000D02*
X22525000Y-25700000D01*
X52270000Y-46770000D02*
X59890000Y-46770000D01*
X52270000Y-44230000D02*
X59890000Y-44230000D01*
X49450000Y-43950000D02*
X51000000Y-43950000D01*
X59890000Y-46770000D02*
X59890000Y-44230000D01*
X52270000Y-44230000D02*
X52270000Y-46770000D01*
X51000000Y-47050000D02*
X49450000Y-47050000D01*
X49450000Y-47050000D02*
X49450000Y-43950000D01*
X17476000Y-16952000D02*
X17476000Y-18095000D01*
X20524000Y-16952000D02*
X20524000Y-18095000D01*
X24334000Y-18095000D02*
X24334000Y-21778000D01*
X24334000Y-21778000D02*
X13666000Y-21778000D01*
X13666000Y-21778000D02*
X13666000Y-18095000D01*
X24334000Y-16952000D02*
X24334000Y-18095000D01*
X24334000Y-18095000D02*
X13666000Y-18095000D01*
X13666000Y-18095000D02*
X13666000Y-16952000D01*
X19000000Y-16952000D02*
X13666000Y-16952000D01*
X19000000Y-16952000D02*
X24334000Y-16952000D01*
X60700000Y-20040000D02*
G75*
G03X59500000Y-18840000I-2200000J-1000000D01*
G01*
X60700000Y-22039999D02*
G75*
G02X59500000Y-23240000I-2200000J999999D01*
G01*
X57503010Y-18852305D02*
G75*
G03X56800000Y-19340000I996990J-2187695D01*
G01*
X57503010Y-23227695D02*
G75*
G02X56800000Y-22740000I996990J2187695D01*
G01*
X56800000Y-19340000D02*
X56800000Y-22740000D01*
X70500000Y-39900000D02*
X70500000Y-39400000D01*
X70000000Y-43900000D02*
G75*
G03X70000000Y-43900000I-2000000J0D01*
G01*
X75000000Y-43900000D02*
G75*
G03X75000000Y-43900000I-2000000J0D01*
G01*
X75500000Y-41400000D02*
X65500000Y-41400000D01*
X75500000Y-46300000D02*
X65500000Y-46300000D01*
X75500000Y-39900000D02*
X65500000Y-39900000D01*
X75500000Y-39400000D02*
X65500000Y-39400000D01*
X65500000Y-39400000D02*
X65500000Y-49200000D01*
X65500000Y-49200000D02*
X75500000Y-49200000D01*
X75500000Y-49200000D02*
X75500000Y-39400000D01*
X59157143Y-27916666D02*
X59204762Y-27964285D01*
X59252381Y-28107142D01*
X59252381Y-28202380D01*
X59204762Y-28345238D01*
X59109524Y-28440476D01*
X59014286Y-28488095D01*
X58823810Y-28535714D01*
X58680952Y-28535714D01*
X58490476Y-28488095D01*
X58395238Y-28440476D01*
X58300000Y-28345238D01*
X58252381Y-28202380D01*
X58252381Y-28107142D01*
X58300000Y-27964285D01*
X58347619Y-27916666D01*
X59252381Y-26964285D02*
X59252381Y-27535714D01*
X59252381Y-27250000D02*
X58252381Y-27250000D01*
X58395238Y-27345238D01*
X58490476Y-27440476D01*
X58538095Y-27535714D01*
X67261905Y-26452381D02*
X67261905Y-25452381D01*
X67500000Y-25452381D01*
X67642858Y-25500000D01*
X67738096Y-25595238D01*
X67785715Y-25690476D01*
X67833334Y-25880952D01*
X67833334Y-26023810D01*
X67785715Y-26214286D01*
X67738096Y-26309524D01*
X67642858Y-26404762D01*
X67500000Y-26452381D01*
X67261905Y-26452381D01*
X68785715Y-26452381D02*
X68214286Y-26452381D01*
X68500000Y-26452381D02*
X68500000Y-25452381D01*
X68404762Y-25595238D01*
X68309524Y-25690476D01*
X68214286Y-25738095D01*
X69761905Y-21952381D02*
X69761905Y-20952381D01*
X70000000Y-20952381D01*
X70142858Y-21000000D01*
X70238096Y-21095238D01*
X70285715Y-21190476D01*
X70333334Y-21380952D01*
X70333334Y-21523810D01*
X70285715Y-21714286D01*
X70238096Y-21809524D01*
X70142858Y-21904762D01*
X70000000Y-21952381D01*
X69761905Y-21952381D01*
X70714286Y-21047619D02*
X70761905Y-21000000D01*
X70857143Y-20952381D01*
X71095239Y-20952381D01*
X71190477Y-21000000D01*
X71238096Y-21047619D01*
X71285715Y-21142857D01*
X71285715Y-21238095D01*
X71238096Y-21380952D01*
X70666667Y-21952381D01*
X71285715Y-21952381D01*
X69761905Y-30452381D02*
X69761905Y-29452381D01*
X70000000Y-29452381D01*
X70142858Y-29500000D01*
X70238096Y-29595238D01*
X70285715Y-29690476D01*
X70333334Y-29880952D01*
X70333334Y-30023810D01*
X70285715Y-30214286D01*
X70238096Y-30309524D01*
X70142858Y-30404762D01*
X70000000Y-30452381D01*
X69761905Y-30452381D01*
X70666667Y-29452381D02*
X71285715Y-29452381D01*
X70952381Y-29833333D01*
X71095239Y-29833333D01*
X71190477Y-29880952D01*
X71238096Y-29928571D01*
X71285715Y-30023810D01*
X71285715Y-30261905D01*
X71238096Y-30357143D01*
X71190477Y-30404762D01*
X71095239Y-30452381D01*
X70809524Y-30452381D01*
X70714286Y-30404762D01*
X70666667Y-30357143D01*
X67261905Y-34952381D02*
X67261905Y-33952381D01*
X67500000Y-33952381D01*
X67642858Y-34000000D01*
X67738096Y-34095238D01*
X67785715Y-34190476D01*
X67833334Y-34380952D01*
X67833334Y-34523810D01*
X67785715Y-34714286D01*
X67738096Y-34809524D01*
X67642858Y-34904762D01*
X67500000Y-34952381D01*
X67261905Y-34952381D01*
X68690477Y-34285714D02*
X68690477Y-34952381D01*
X68452381Y-33904762D02*
X68214286Y-34619048D01*
X68833334Y-34619048D01*
X30761905Y-23452381D02*
X30761905Y-22452381D01*
X31000000Y-22452381D01*
X31142858Y-22500000D01*
X31238096Y-22595238D01*
X31285715Y-22690476D01*
X31333334Y-22880952D01*
X31333334Y-23023810D01*
X31285715Y-23214286D01*
X31238096Y-23309524D01*
X31142858Y-23404762D01*
X31000000Y-23452381D01*
X30761905Y-23452381D01*
X32238096Y-22452381D02*
X31761905Y-22452381D01*
X31714286Y-22928571D01*
X31761905Y-22880952D01*
X31857143Y-22833333D01*
X32095239Y-22833333D01*
X32190477Y-22880952D01*
X32238096Y-22928571D01*
X32285715Y-23023810D01*
X32285715Y-23261905D01*
X32238096Y-23357143D01*
X32190477Y-23404762D01*
X32095239Y-23452381D01*
X31857143Y-23452381D01*
X31761905Y-23404762D01*
X31714286Y-23357143D01*
X54833334Y-40952381D02*
X54500000Y-40476190D01*
X54261905Y-40952381D02*
X54261905Y-39952381D01*
X54642858Y-39952381D01*
X54738096Y-40000000D01*
X54785715Y-40047619D01*
X54833334Y-40142857D01*
X54833334Y-40285714D01*
X54785715Y-40380952D01*
X54738096Y-40428571D01*
X54642858Y-40476190D01*
X54261905Y-40476190D01*
X55785715Y-40952381D02*
X55214286Y-40952381D01*
X55500000Y-40952381D02*
X55500000Y-39952381D01*
X55404762Y-40095238D01*
X55309524Y-40190476D01*
X55214286Y-40238095D01*
X43833334Y-37452381D02*
X43500000Y-36976190D01*
X43261905Y-37452381D02*
X43261905Y-36452381D01*
X43642858Y-36452381D01*
X43738096Y-36500000D01*
X43785715Y-36547619D01*
X43833334Y-36642857D01*
X43833334Y-36785714D01*
X43785715Y-36880952D01*
X43738096Y-36928571D01*
X43642858Y-36976190D01*
X43261905Y-36976190D01*
X44214286Y-36547619D02*
X44261905Y-36500000D01*
X44357143Y-36452381D01*
X44595239Y-36452381D01*
X44690477Y-36500000D01*
X44738096Y-36547619D01*
X44785715Y-36642857D01*
X44785715Y-36738095D01*
X44738096Y-36880952D01*
X44166667Y-37452381D01*
X44785715Y-37452381D01*
X18833334Y-39452381D02*
X18500000Y-38976190D01*
X18261905Y-39452381D02*
X18261905Y-38452381D01*
X18642858Y-38452381D01*
X18738096Y-38500000D01*
X18785715Y-38547619D01*
X18833334Y-38642857D01*
X18833334Y-38785714D01*
X18785715Y-38880952D01*
X18738096Y-38928571D01*
X18642858Y-38976190D01*
X18261905Y-38976190D01*
X19166667Y-38452381D02*
X19785715Y-38452381D01*
X19452381Y-38833333D01*
X19595239Y-38833333D01*
X19690477Y-38880952D01*
X19738096Y-38928571D01*
X19785715Y-39023810D01*
X19785715Y-39261905D01*
X19738096Y-39357143D01*
X19690477Y-39404762D01*
X19595239Y-39452381D01*
X19309524Y-39452381D01*
X19214286Y-39404762D01*
X19166667Y-39357143D01*
X31833334Y-19952381D02*
X31500000Y-19476190D01*
X31261905Y-19952381D02*
X31261905Y-18952381D01*
X31642858Y-18952381D01*
X31738096Y-19000000D01*
X31785715Y-19047619D01*
X31833334Y-19142857D01*
X31833334Y-19285714D01*
X31785715Y-19380952D01*
X31738096Y-19428571D01*
X31642858Y-19476190D01*
X31261905Y-19476190D01*
X32690477Y-19285714D02*
X32690477Y-19952381D01*
X32452381Y-18904762D02*
X32214286Y-19619048D01*
X32833334Y-19619048D01*
X31333334Y-26952381D02*
X31000000Y-26476190D01*
X30761905Y-26952381D02*
X30761905Y-25952381D01*
X31142858Y-25952381D01*
X31238096Y-26000000D01*
X31285715Y-26047619D01*
X31333334Y-26142857D01*
X31333334Y-26285714D01*
X31285715Y-26380952D01*
X31238096Y-26428571D01*
X31142858Y-26476190D01*
X30761905Y-26476190D01*
X32238096Y-25952381D02*
X31761905Y-25952381D01*
X31714286Y-26428571D01*
X31761905Y-26380952D01*
X31857143Y-26333333D01*
X32095239Y-26333333D01*
X32190477Y-26380952D01*
X32238096Y-26428571D01*
X32285715Y-26523810D01*
X32285715Y-26761905D01*
X32238096Y-26857143D01*
X32190477Y-26904762D01*
X32095239Y-26952381D01*
X31857143Y-26952381D01*
X31761905Y-26904762D01*
X31714286Y-26857143D01*
X29904762Y-34452381D02*
X29571428Y-33976190D01*
X29333333Y-34452381D02*
X29333333Y-33452381D01*
X29714286Y-33452381D01*
X29809524Y-33500000D01*
X29857143Y-33547619D01*
X29904762Y-33642857D01*
X29904762Y-33785714D01*
X29857143Y-33880952D01*
X29809524Y-33928571D01*
X29714286Y-33976190D01*
X29333333Y-33976190D01*
X30190476Y-33452381D02*
X30523809Y-34452381D01*
X30857143Y-33452381D01*
X31714286Y-34452381D02*
X31142857Y-34452381D01*
X31428571Y-34452381D02*
X31428571Y-33452381D01*
X31333333Y-33595238D01*
X31238095Y-33690476D01*
X31142857Y-33738095D01*
X48672381Y-40761905D02*
X49481905Y-40761905D01*
X49577143Y-40714286D01*
X49624762Y-40666667D01*
X49672381Y-40571429D01*
X49672381Y-40380952D01*
X49624762Y-40285714D01*
X49577143Y-40238095D01*
X49481905Y-40190476D01*
X48672381Y-40190476D01*
X49672381Y-39190476D02*
X49672381Y-39761905D01*
X49672381Y-39476191D02*
X48672381Y-39476191D01*
X48815238Y-39571429D01*
X48910476Y-39666667D01*
X48958095Y-39761905D01*
X37732381Y-32261905D02*
X38541905Y-32261905D01*
X38637143Y-32214286D01*
X38684762Y-32166667D01*
X38732381Y-32071429D01*
X38732381Y-31880952D01*
X38684762Y-31785714D01*
X38637143Y-31738095D01*
X38541905Y-31690476D01*
X37732381Y-31690476D01*
X37827619Y-31261905D02*
X37780000Y-31214286D01*
X37732381Y-31119048D01*
X37732381Y-30880952D01*
X37780000Y-30785714D01*
X37827619Y-30738095D01*
X37922857Y-30690476D01*
X38018095Y-30690476D01*
X38160952Y-30738095D01*
X38732381Y-31309524D01*
X38732381Y-30690476D01*
X26172381Y-27261905D02*
X26981905Y-27261905D01*
X27077143Y-27214286D01*
X27124762Y-27166667D01*
X27172381Y-27071429D01*
X27172381Y-26880952D01*
X27124762Y-26785714D01*
X27077143Y-26738095D01*
X26981905Y-26690476D01*
X26172381Y-26690476D01*
X26505714Y-25785714D02*
X27172381Y-25785714D01*
X26124762Y-26023810D02*
X26839048Y-26261905D01*
X26839048Y-25642857D01*
X46352381Y-46238095D02*
X45352381Y-46238095D01*
X45352381Y-45857142D01*
X45400000Y-45761904D01*
X45447619Y-45714285D01*
X45542857Y-45666666D01*
X45685714Y-45666666D01*
X45780952Y-45714285D01*
X45828571Y-45761904D01*
X45876190Y-45857142D01*
X45876190Y-46238095D01*
X46352381Y-44714285D02*
X46352381Y-45285714D01*
X46352381Y-45000000D02*
X45352381Y-45000000D01*
X45495238Y-45095238D01*
X45590476Y-45190476D01*
X45638095Y-45285714D01*
X18904762Y-16547619D02*
X18809524Y-16500000D01*
X18714286Y-16404762D01*
X18571429Y-16261905D01*
X18476190Y-16214286D01*
X18380952Y-16214286D01*
X18428571Y-16452381D02*
X18333333Y-16404762D01*
X18238095Y-16309524D01*
X18190476Y-16119048D01*
X18190476Y-15785714D01*
X18238095Y-15595238D01*
X18333333Y-15500000D01*
X18428571Y-15452381D01*
X18619048Y-15452381D01*
X18714286Y-15500000D01*
X18809524Y-15595238D01*
X18857143Y-15785714D01*
X18857143Y-16119048D01*
X18809524Y-16309524D01*
X18714286Y-16404762D01*
X18619048Y-16452381D01*
X18428571Y-16452381D01*
X19809524Y-16452381D02*
X19238095Y-16452381D01*
X19523809Y-16452381D02*
X19523809Y-15452381D01*
X19428571Y-15595238D01*
X19333333Y-15690476D01*
X19238095Y-15738095D01*
X58452381Y-21761905D02*
X59261905Y-21761905D01*
X59357143Y-21714286D01*
X59404762Y-21666667D01*
X59452381Y-21571429D01*
X59452381Y-21380952D01*
X59404762Y-21285714D01*
X59357143Y-21238095D01*
X59261905Y-21190476D01*
X58452381Y-21190476D01*
X58452381Y-20809524D02*
X58452381Y-20190476D01*
X58833333Y-20523810D01*
X58833333Y-20380952D01*
X58880952Y-20285714D01*
X58928571Y-20238095D01*
X59023810Y-20190476D01*
X59261905Y-20190476D01*
X59357143Y-20238095D01*
X59404762Y-20285714D01*
X59452381Y-20380952D01*
X59452381Y-20666667D01*
X59404762Y-20761905D01*
X59357143Y-20809524D01*
X69761905Y-38552381D02*
X69761905Y-37552381D01*
X70142858Y-37552381D01*
X70238096Y-37600000D01*
X70285715Y-37647619D01*
X70333334Y-37742857D01*
X70333334Y-37885714D01*
X70285715Y-37980952D01*
X70238096Y-38028571D01*
X70142858Y-38076190D01*
X69761905Y-38076190D01*
X70714286Y-37647619D02*
X70761905Y-37600000D01*
X70857143Y-37552381D01*
X71095239Y-37552381D01*
X71190477Y-37600000D01*
X71238096Y-37647619D01*
X71285715Y-37742857D01*
X71285715Y-37838095D01*
X71238096Y-37980952D01*
X70666667Y-38552381D01*
X71285715Y-38552381D01*
M02*
