G04 #@! TF.FileFunction,Copper,L2,Bot,Signal*
%FSLAX46Y46*%
G04 Gerber Fmt 4.6, Leading zero omitted, Abs format (unit mm)*
G04 Created by KiCad (PCBNEW 4.0.2-stable) date Friday, 30 September 2016 22:20:02*
%MOMM*%
G01*
G04 APERTURE LIST*
%ADD10C,0.100000*%
%ADD11C,0.300000*%
%ADD12R,1.300000X1.300000*%
%ADD13C,1.300000*%
%ADD14C,1.699260*%
%ADD15R,1.699260X1.699260*%
%ADD16C,1.998980*%
%ADD17C,1.524000*%
%ADD18O,1.600000X1.600000*%
%ADD19R,1.727200X2.032000*%
%ADD20O,1.727200X2.032000*%
%ADD21O,1.501140X2.499360*%
%ADD22R,2.500000X2.500000*%
%ADD23C,2.500000*%
%ADD24O,2.499360X1.501140*%
G04 APERTURE END LIST*
D10*
D11*
X75507143Y-31335714D02*
X75578571Y-31192857D01*
X75578571Y-30907143D01*
X75507143Y-30764286D01*
X75364286Y-30692857D01*
X74792857Y-30692857D01*
X74650000Y-30764286D01*
X74578571Y-30907143D01*
X74578571Y-31192857D01*
X74650000Y-31335714D01*
X74792857Y-31407143D01*
X74935714Y-31407143D01*
X75078571Y-30692857D01*
X74792857Y-32550000D02*
X74864286Y-32764286D01*
X74935714Y-32835714D01*
X75078571Y-32907143D01*
X75292857Y-32907143D01*
X75435714Y-32835714D01*
X75507143Y-32764286D01*
X75578571Y-32621428D01*
X75578571Y-32050000D01*
X74078571Y-32050000D01*
X74078571Y-32550000D01*
X74150000Y-32692857D01*
X74221429Y-32764286D01*
X74364286Y-32835714D01*
X74507143Y-32835714D01*
X74650000Y-32764286D01*
X74721429Y-32692857D01*
X74792857Y-32550000D01*
X74792857Y-32050000D01*
X74078571Y-33550000D02*
X75292857Y-33550000D01*
X75435714Y-33621428D01*
X75507143Y-33692857D01*
X75578571Y-33835714D01*
X75578571Y-34121428D01*
X75507143Y-34264286D01*
X75435714Y-34335714D01*
X75292857Y-34407143D01*
X74078571Y-34407143D01*
X75507143Y-35050000D02*
X75578571Y-35264286D01*
X75578571Y-35621429D01*
X75507143Y-35764286D01*
X75435714Y-35835715D01*
X75292857Y-35907143D01*
X75150000Y-35907143D01*
X75007143Y-35835715D01*
X74935714Y-35764286D01*
X74864286Y-35621429D01*
X74792857Y-35335715D01*
X74721429Y-35192857D01*
X74650000Y-35121429D01*
X74507143Y-35050000D01*
X74364286Y-35050000D01*
X74221429Y-35121429D01*
X74150000Y-35192857D01*
X74078571Y-35335715D01*
X74078571Y-35692857D01*
X74150000Y-35907143D01*
X77550000Y-29371429D02*
X77550000Y-30085715D01*
X77978571Y-29228572D02*
X76478571Y-29728572D01*
X77978571Y-30228572D01*
X77978571Y-31371429D02*
X76478571Y-31371429D01*
X77907143Y-31371429D02*
X77978571Y-31228572D01*
X77978571Y-30942858D01*
X77907143Y-30800000D01*
X77835714Y-30728572D01*
X77692857Y-30657143D01*
X77264286Y-30657143D01*
X77121429Y-30728572D01*
X77050000Y-30800000D01*
X76978571Y-30942858D01*
X76978571Y-31228572D01*
X77050000Y-31371429D01*
X77978571Y-32728572D02*
X77192857Y-32728572D01*
X77050000Y-32657143D01*
X76978571Y-32514286D01*
X76978571Y-32228572D01*
X77050000Y-32085715D01*
X77907143Y-32728572D02*
X77978571Y-32585715D01*
X77978571Y-32228572D01*
X77907143Y-32085715D01*
X77764286Y-32014286D01*
X77621429Y-32014286D01*
X77478571Y-32085715D01*
X77407143Y-32228572D01*
X77407143Y-32585715D01*
X77335714Y-32728572D01*
X76978571Y-33442858D02*
X78478571Y-33442858D01*
X77050000Y-33442858D02*
X76978571Y-33585715D01*
X76978571Y-33871429D01*
X77050000Y-34014286D01*
X77121429Y-34085715D01*
X77264286Y-34157144D01*
X77692857Y-34157144D01*
X77835714Y-34085715D01*
X77907143Y-34014286D01*
X77978571Y-33871429D01*
X77978571Y-33585715D01*
X77907143Y-33442858D01*
X76978571Y-34585715D02*
X76978571Y-35157144D01*
X76478571Y-34800001D02*
X77764286Y-34800001D01*
X77907143Y-34871429D01*
X77978571Y-35014287D01*
X77978571Y-35157144D01*
X77907143Y-36228572D02*
X77978571Y-36085715D01*
X77978571Y-35800001D01*
X77907143Y-35657144D01*
X77764286Y-35585715D01*
X77192857Y-35585715D01*
X77050000Y-35657144D01*
X76978571Y-35800001D01*
X76978571Y-36085715D01*
X77050000Y-36228572D01*
X77192857Y-36300001D01*
X77335714Y-36300001D01*
X77478571Y-35585715D01*
X77978571Y-36942858D02*
X76978571Y-36942858D01*
X77264286Y-36942858D02*
X77121429Y-37014286D01*
X77050000Y-37085715D01*
X76978571Y-37228572D01*
X76978571Y-37371429D01*
D12*
X55000000Y-26500000D03*
D13*
X55000000Y-29000000D03*
D14*
X62297460Y-26739480D03*
D15*
X62297460Y-36899480D03*
D14*
X71397460Y-26639480D03*
D15*
X71397460Y-36799480D03*
D14*
X68502540Y-36860520D03*
D15*
X68502540Y-26700520D03*
D14*
X65102540Y-36860520D03*
D15*
X65102540Y-26700520D03*
D14*
X26839480Y-23002540D03*
D15*
X36999480Y-23002540D03*
D16*
X60000000Y-40500000D03*
X49840000Y-40500000D03*
X49000000Y-37000000D03*
X38840000Y-37000000D03*
X14000000Y-39000000D03*
X24160000Y-39000000D03*
X27000000Y-19500000D03*
X37160000Y-19500000D03*
X37000000Y-26500000D03*
X26840000Y-26500000D03*
D17*
X30540000Y-35500000D03*
X33080000Y-35500000D03*
X28000000Y-35500000D03*
D18*
X44000000Y-40000000D03*
X41460000Y-40000000D03*
X38920000Y-40000000D03*
X36380000Y-40000000D03*
X33840000Y-40000000D03*
X31300000Y-40000000D03*
X28760000Y-40000000D03*
X28760000Y-47620000D03*
X31300000Y-47620000D03*
X33840000Y-47620000D03*
X36380000Y-47620000D03*
X38920000Y-47620000D03*
X41460000Y-47620000D03*
X44000000Y-47620000D03*
X43500000Y-31500000D03*
X46040000Y-31500000D03*
X48580000Y-31500000D03*
X48580000Y-23880000D03*
X46040000Y-23880000D03*
X43500000Y-23880000D03*
X21500000Y-26500000D03*
X18960000Y-26500000D03*
X16420000Y-26500000D03*
X16420000Y-34120000D03*
X18960000Y-34120000D03*
X21500000Y-34120000D03*
D19*
X51000000Y-45500000D03*
D20*
X53540000Y-45500000D03*
X56080000Y-45500000D03*
X58620000Y-45500000D03*
D21*
X19000000Y-20000000D03*
X16460000Y-20000000D03*
X21540000Y-20000000D03*
D22*
X69700000Y-43800000D03*
D23*
X64700000Y-43800000D03*
D24*
X58500000Y-18500000D03*
X58500000Y-15960000D03*
X58500000Y-21040000D03*
D11*
X12000000Y-48000000D02*
X12000000Y-50000000D01*
X12000000Y-50000000D02*
X14000000Y-50000000D01*
X78500000Y-50000000D02*
X80000000Y-50000000D01*
X80000000Y-50000000D02*
X80000000Y-48500000D01*
X78500000Y-12000000D02*
X80000000Y-12000000D01*
X80000000Y-12000000D02*
X80000000Y-13500000D01*
X12000000Y-13500000D02*
X12000000Y-12000000D01*
X12000000Y-12000000D02*
X13500000Y-12000000D01*
X58500000Y-21040000D02*
X58500000Y-23000000D01*
X58500000Y-23000000D02*
X55000000Y-26500000D01*
X46040000Y-23880000D02*
X46040000Y-25040000D01*
X47500000Y-26500000D02*
X55580000Y-26500000D01*
X46040000Y-25040000D02*
X47500000Y-26500000D01*
X58500000Y-18500000D02*
X60200000Y-18500000D01*
X62297460Y-20597460D02*
X62297460Y-26739480D01*
X60200000Y-18500000D02*
X62297460Y-20597460D01*
X55000000Y-29000000D02*
X60036940Y-29000000D01*
X60036940Y-29000000D02*
X62297460Y-26739480D01*
X62297460Y-26739480D02*
X62297460Y-27597460D01*
X62297460Y-27597460D02*
X63600000Y-28900000D01*
X63600000Y-28900000D02*
X70300000Y-28900000D01*
X70300000Y-28900000D02*
X71397460Y-27802540D01*
X71397460Y-27802540D02*
X71397460Y-26639480D01*
X62297460Y-26739480D02*
X62297460Y-26217460D01*
X57000000Y-29000000D02*
X55000000Y-29000000D01*
X18960000Y-26500000D02*
X19000000Y-26500000D01*
X19000000Y-26500000D02*
X21500000Y-29000000D01*
X21500000Y-29000000D02*
X55000000Y-29000000D01*
X16460000Y-20000000D02*
X16460000Y-24000000D01*
X16460000Y-24000000D02*
X18960000Y-26500000D01*
X64700000Y-43800000D02*
X64700000Y-37263060D01*
X64700000Y-37263060D02*
X65102540Y-36860520D01*
X62297460Y-36899480D02*
X65063580Y-36899480D01*
X65063580Y-36899480D02*
X65102540Y-36860520D01*
X69700000Y-43800000D02*
X69700000Y-36860520D01*
X68502540Y-36860520D02*
X69700000Y-36860520D01*
X69700000Y-36860520D02*
X71336420Y-36860520D01*
X71336420Y-36860520D02*
X71397460Y-36799480D01*
X26839480Y-23002540D02*
X24542540Y-23002540D01*
X24542540Y-23002540D02*
X21540000Y-20000000D01*
X19000000Y-20000000D02*
X19000000Y-18000000D01*
X24500000Y-17000000D02*
X27000000Y-19500000D01*
X20000000Y-17000000D02*
X24500000Y-17000000D01*
X19000000Y-18000000D02*
X20000000Y-17000000D01*
X31300000Y-47620000D02*
X31300000Y-40000000D01*
X44000000Y-47620000D02*
X44000000Y-49000000D01*
X58620000Y-45500000D02*
X58620000Y-47380000D01*
X32680000Y-49000000D02*
X31300000Y-47620000D01*
X57000000Y-49000000D02*
X44000000Y-49000000D01*
X44000000Y-49000000D02*
X32680000Y-49000000D01*
X58620000Y-47380000D02*
X57000000Y-49000000D01*
X18960000Y-34120000D02*
X18960000Y-41960000D01*
X18960000Y-41960000D02*
X22000000Y-45000000D01*
X22000000Y-45000000D02*
X28680000Y-45000000D01*
X28680000Y-45000000D02*
X31300000Y-47620000D01*
X58620000Y-45500000D02*
X58500000Y-45500000D01*
X60000000Y-40500000D02*
X60000000Y-44120000D01*
X60000000Y-44120000D02*
X58620000Y-45500000D01*
X36380000Y-40000000D02*
X36380000Y-36120000D01*
X47500000Y-40500000D02*
X49840000Y-40500000D01*
X41500000Y-34500000D02*
X47500000Y-40500000D01*
X38000000Y-34500000D02*
X41500000Y-34500000D01*
X36380000Y-36120000D02*
X38000000Y-34500000D01*
X56080000Y-45500000D02*
X56080000Y-44080000D01*
X52500000Y-40500000D02*
X49840000Y-40500000D01*
X56080000Y-44080000D02*
X52500000Y-40500000D01*
X56080000Y-45500000D02*
X56080000Y-46420000D01*
X49000000Y-37000000D02*
X43500000Y-31500000D01*
X38840000Y-37000000D02*
X38840000Y-39920000D01*
X38840000Y-39920000D02*
X38920000Y-40000000D01*
X14000000Y-39000000D02*
X14000000Y-36540000D01*
X14000000Y-36540000D02*
X16420000Y-34120000D01*
X28760000Y-47620000D02*
X20120000Y-47620000D01*
X14000000Y-41500000D02*
X14000000Y-39000000D01*
X20120000Y-47620000D02*
X14000000Y-41500000D01*
X24160000Y-39000000D02*
X24500000Y-39000000D01*
X24500000Y-39000000D02*
X28000000Y-35500000D01*
X37160000Y-19500000D02*
X46500000Y-19500000D01*
X48580000Y-21580000D02*
X48580000Y-23880000D01*
X46500000Y-19500000D02*
X48580000Y-21580000D01*
X21500000Y-26500000D02*
X26840000Y-26500000D01*
X51000000Y-45500000D02*
X38500000Y-45500000D01*
X35160000Y-37420000D02*
X33080000Y-35500000D01*
X35160000Y-42000000D02*
X35160000Y-37420000D01*
X38500000Y-45500000D02*
X35160000Y-42000000D01*
X33080000Y-35500000D02*
X33000000Y-35500000D01*
X44540000Y-30000000D02*
X46040000Y-31500000D01*
X38500000Y-30000000D02*
X44540000Y-30000000D01*
X33000000Y-35500000D02*
X38500000Y-30000000D01*
X33080000Y-35500000D02*
X30540000Y-35500000D01*
X28760000Y-37280000D02*
X30540000Y-35500000D01*
X28760000Y-40000000D02*
X28760000Y-37280000D01*
X41460000Y-40000000D02*
X44000000Y-40000000D01*
X44000000Y-40000000D02*
X47000000Y-43000000D01*
X47000000Y-43000000D02*
X52500000Y-43000000D01*
X52500000Y-43000000D02*
X53540000Y-44040000D01*
X53540000Y-44040000D02*
X53540000Y-45500000D01*
X33840000Y-47620000D02*
X33840000Y-40000000D01*
X58500000Y-15960000D02*
X61560000Y-15960000D01*
X65102540Y-19502540D02*
X61560000Y-15960000D01*
X65102540Y-19502540D02*
X65102540Y-26700520D01*
X58500000Y-15960000D02*
X58460000Y-16000000D01*
X58460000Y-16000000D02*
X37000000Y-16000000D01*
X34500000Y-20503060D02*
X34500000Y-18500000D01*
X34500000Y-18500000D02*
X37000000Y-16000000D01*
X37000000Y-23003060D02*
X34500000Y-20503060D01*
X68502540Y-26700520D02*
X65102540Y-26700520D01*
X37000000Y-26500000D02*
X37000000Y-23003060D01*
M02*
