G04 #@! TF.FileFunction,Soldermask,Top*
%FSLAX46Y46*%
G04 Gerber Fmt 4.6, Leading zero omitted, Abs format (unit mm)*
G04 Created by KiCad (PCBNEW 4.0.2-stable) date Friday, 30 September 2016 22:37:06*
%MOMM*%
G01*
G04 APERTURE LIST*
%ADD10C,0.100000*%
%ADD11R,1.700000X1.700000*%
%ADD12C,1.700000*%
%ADD13C,2.099260*%
%ADD14R,2.099260X2.099260*%
%ADD15C,2.398980*%
%ADD16C,1.924000*%
%ADD17O,2.000000X2.000000*%
%ADD18R,2.127200X2.432000*%
%ADD19O,2.127200X2.432000*%
%ADD20O,1.901140X2.899360*%
%ADD21R,2.900000X2.900000*%
%ADD22C,2.900000*%
%ADD23O,2.899360X1.901140*%
%ADD24C,4.199840*%
%ADD25R,2.300000X2.400000*%
%ADD26C,2.300000*%
G04 APERTURE END LIST*
D10*
D11*
X55000000Y-26500000D03*
D12*
X55000000Y-29000000D03*
D13*
X68997460Y-26939480D03*
D14*
X68997460Y-37099480D03*
D13*
X77797460Y-26939480D03*
D14*
X77797460Y-37099480D03*
D13*
X74802540Y-37060520D03*
D14*
X74802540Y-26900520D03*
D13*
X71802540Y-37060520D03*
D14*
X71802540Y-26900520D03*
D13*
X26839480Y-23002540D03*
D14*
X36999480Y-23002540D03*
D15*
X60000000Y-40500000D03*
X49840000Y-40500000D03*
X49000000Y-37000000D03*
X38840000Y-37000000D03*
X14000000Y-39000000D03*
X24160000Y-39000000D03*
X27000000Y-19500000D03*
X37160000Y-19500000D03*
X37000000Y-26500000D03*
X26840000Y-26500000D03*
D16*
X30540000Y-35500000D03*
X33080000Y-35500000D03*
X28000000Y-35500000D03*
D17*
X44000000Y-40000000D03*
X41460000Y-40000000D03*
X38920000Y-40000000D03*
X36380000Y-40000000D03*
X33840000Y-40000000D03*
X31300000Y-40000000D03*
X28760000Y-40000000D03*
X28760000Y-47620000D03*
X31300000Y-47620000D03*
X33840000Y-47620000D03*
X36380000Y-47620000D03*
X38920000Y-47620000D03*
X41460000Y-47620000D03*
X44000000Y-47620000D03*
X43500000Y-31500000D03*
X46040000Y-31500000D03*
X48580000Y-31500000D03*
X48580000Y-23880000D03*
X46040000Y-23880000D03*
X43500000Y-23880000D03*
X21500000Y-26500000D03*
X18960000Y-26500000D03*
X16420000Y-26500000D03*
X16420000Y-34120000D03*
X18960000Y-34120000D03*
X21500000Y-34120000D03*
D18*
X51000000Y-45500000D03*
D19*
X53540000Y-45500000D03*
X56080000Y-45500000D03*
X58620000Y-45500000D03*
D20*
X19000000Y-20000000D03*
X16460000Y-20000000D03*
X21540000Y-20000000D03*
D21*
X75600000Y-43800000D03*
D22*
X70600000Y-43800000D03*
D23*
X58500000Y-18500000D03*
X58500000Y-15960000D03*
X58500000Y-21040000D03*
D24*
X75264000Y-18500000D03*
D25*
X53600000Y-34300000D03*
D26*
X56140000Y-34300000D03*
D15*
X63200000Y-40400000D03*
X63200000Y-30240000D03*
M02*
