G04 #@! TF.FileFunction,Copper,L2,Bot,Signal*
%FSLAX46Y46*%
G04 Gerber Fmt 4.6, Leading zero omitted, Abs format (unit mm)*
G04 Created by KiCad (PCBNEW 4.0.2-stable) date Friday, 30 September 2016 18:58:37*
%MOMM*%
G01*
G04 APERTURE LIST*
%ADD10C,0.100000*%
%ADD11C,0.300000*%
%ADD12R,1.300000X1.300000*%
%ADD13C,1.300000*%
%ADD14C,1.699260*%
%ADD15R,1.699260X1.699260*%
%ADD16C,1.998980*%
%ADD17C,1.524000*%
%ADD18O,1.600000X1.600000*%
%ADD19R,1.727200X2.032000*%
%ADD20O,1.727200X2.032000*%
%ADD21O,1.501140X2.499360*%
%ADD22R,2.500000X2.500000*%
%ADD23C,2.500000*%
G04 APERTURE END LIST*
D10*
D11*
X29750000Y-14857143D02*
X29892857Y-14928571D01*
X30178571Y-14928571D01*
X30321428Y-14857143D01*
X30392857Y-14714286D01*
X30392857Y-14142857D01*
X30321428Y-14000000D01*
X30178571Y-13928571D01*
X29892857Y-13928571D01*
X29750000Y-14000000D01*
X29678571Y-14142857D01*
X29678571Y-14285714D01*
X30392857Y-14428571D01*
X28535714Y-14142857D02*
X28321428Y-14214286D01*
X28250000Y-14285714D01*
X28178571Y-14428571D01*
X28178571Y-14642857D01*
X28250000Y-14785714D01*
X28321428Y-14857143D01*
X28464286Y-14928571D01*
X29035714Y-14928571D01*
X29035714Y-13428571D01*
X28535714Y-13428571D01*
X28392857Y-13500000D01*
X28321428Y-13571429D01*
X28250000Y-13714286D01*
X28250000Y-13857143D01*
X28321428Y-14000000D01*
X28392857Y-14071429D01*
X28535714Y-14142857D01*
X29035714Y-14142857D01*
X27535714Y-13428571D02*
X27535714Y-14642857D01*
X27464286Y-14785714D01*
X27392857Y-14857143D01*
X27250000Y-14928571D01*
X26964286Y-14928571D01*
X26821428Y-14857143D01*
X26750000Y-14785714D01*
X26678571Y-14642857D01*
X26678571Y-13428571D01*
X26035714Y-14857143D02*
X25821428Y-14928571D01*
X25464285Y-14928571D01*
X25321428Y-14857143D01*
X25249999Y-14785714D01*
X25178571Y-14642857D01*
X25178571Y-14500000D01*
X25249999Y-14357143D01*
X25321428Y-14285714D01*
X25464285Y-14214286D01*
X25749999Y-14142857D01*
X25892857Y-14071429D01*
X25964285Y-14000000D01*
X26035714Y-13857143D01*
X26035714Y-13714286D01*
X25964285Y-13571429D01*
X25892857Y-13500000D01*
X25749999Y-13428571D01*
X25392857Y-13428571D01*
X25178571Y-13500000D01*
X23464286Y-14500000D02*
X22750000Y-14500000D01*
X23607143Y-14928571D02*
X23107143Y-13428571D01*
X22607143Y-14928571D01*
X21464286Y-14928571D02*
X21464286Y-13428571D01*
X21464286Y-14857143D02*
X21607143Y-14928571D01*
X21892857Y-14928571D01*
X22035715Y-14857143D01*
X22107143Y-14785714D01*
X22178572Y-14642857D01*
X22178572Y-14214286D01*
X22107143Y-14071429D01*
X22035715Y-14000000D01*
X21892857Y-13928571D01*
X21607143Y-13928571D01*
X21464286Y-14000000D01*
X20107143Y-14928571D02*
X20107143Y-14142857D01*
X20178572Y-14000000D01*
X20321429Y-13928571D01*
X20607143Y-13928571D01*
X20750000Y-14000000D01*
X20107143Y-14857143D02*
X20250000Y-14928571D01*
X20607143Y-14928571D01*
X20750000Y-14857143D01*
X20821429Y-14714286D01*
X20821429Y-14571429D01*
X20750000Y-14428571D01*
X20607143Y-14357143D01*
X20250000Y-14357143D01*
X20107143Y-14285714D01*
X19392857Y-13928571D02*
X19392857Y-15428571D01*
X19392857Y-14000000D02*
X19250000Y-13928571D01*
X18964286Y-13928571D01*
X18821429Y-14000000D01*
X18750000Y-14071429D01*
X18678571Y-14214286D01*
X18678571Y-14642857D01*
X18750000Y-14785714D01*
X18821429Y-14857143D01*
X18964286Y-14928571D01*
X19250000Y-14928571D01*
X19392857Y-14857143D01*
X18250000Y-13928571D02*
X17678571Y-13928571D01*
X18035714Y-13428571D02*
X18035714Y-14714286D01*
X17964286Y-14857143D01*
X17821428Y-14928571D01*
X17678571Y-14928571D01*
X16607143Y-14857143D02*
X16750000Y-14928571D01*
X17035714Y-14928571D01*
X17178571Y-14857143D01*
X17250000Y-14714286D01*
X17250000Y-14142857D01*
X17178571Y-14000000D01*
X17035714Y-13928571D01*
X16750000Y-13928571D01*
X16607143Y-14000000D01*
X16535714Y-14142857D01*
X16535714Y-14285714D01*
X17250000Y-14428571D01*
X15892857Y-14928571D02*
X15892857Y-13928571D01*
X15892857Y-14214286D02*
X15821429Y-14071429D01*
X15750000Y-14000000D01*
X15607143Y-13928571D01*
X15464286Y-13928571D01*
D12*
X55000000Y-26500000D03*
D13*
X55000000Y-29000000D03*
D14*
X73160520Y-25997460D03*
D15*
X63000520Y-25997460D03*
D14*
X65839480Y-21502540D03*
D15*
X75999480Y-21502540D03*
D14*
X65839480Y-30002540D03*
D15*
X75999480Y-30002540D03*
D14*
X73160520Y-34497460D03*
D15*
X63000520Y-34497460D03*
D14*
X26839480Y-23002540D03*
D15*
X36999480Y-23002540D03*
D16*
X60000000Y-40500000D03*
X49840000Y-40500000D03*
X49000000Y-37000000D03*
X38840000Y-37000000D03*
X14000000Y-39000000D03*
X24160000Y-39000000D03*
X27000000Y-19500000D03*
X37160000Y-19500000D03*
X37000000Y-26500000D03*
X26840000Y-26500000D03*
D17*
X30540000Y-35500000D03*
X33080000Y-35500000D03*
X28000000Y-35500000D03*
D18*
X44000000Y-40000000D03*
X41460000Y-40000000D03*
X38920000Y-40000000D03*
X36380000Y-40000000D03*
X33840000Y-40000000D03*
X31300000Y-40000000D03*
X28760000Y-40000000D03*
X28760000Y-47620000D03*
X31300000Y-47620000D03*
X33840000Y-47620000D03*
X36380000Y-47620000D03*
X38920000Y-47620000D03*
X41460000Y-47620000D03*
X44000000Y-47620000D03*
X43500000Y-31500000D03*
X46040000Y-31500000D03*
X48580000Y-31500000D03*
X48580000Y-23880000D03*
X46040000Y-23880000D03*
X43500000Y-23880000D03*
X21500000Y-26500000D03*
X18960000Y-26500000D03*
X16420000Y-26500000D03*
X16420000Y-34120000D03*
X18960000Y-34120000D03*
X21500000Y-34120000D03*
D19*
X51000000Y-45500000D03*
D20*
X53540000Y-45500000D03*
X56080000Y-45500000D03*
X58620000Y-45500000D03*
D21*
X19000000Y-20000000D03*
X16460000Y-20000000D03*
X21540000Y-20000000D03*
D17*
X61040000Y-21040000D03*
X58500000Y-23580000D03*
X58500000Y-18500000D03*
D22*
X73000000Y-44000000D03*
D23*
X68000000Y-44000000D03*
D11*
X12000000Y-48000000D02*
X12000000Y-50000000D01*
X12000000Y-50000000D02*
X14000000Y-50000000D01*
X78500000Y-50000000D02*
X80000000Y-50000000D01*
X80000000Y-50000000D02*
X80000000Y-48500000D01*
X78500000Y-12000000D02*
X80000000Y-12000000D01*
X80000000Y-12000000D02*
X80000000Y-13500000D01*
X12000000Y-13500000D02*
X12000000Y-12000000D01*
X12000000Y-12000000D02*
X13500000Y-12000000D01*
X46040000Y-23880000D02*
X46040000Y-25040000D01*
X47500000Y-26500000D02*
X55580000Y-26500000D01*
X46040000Y-25040000D02*
X47500000Y-26500000D01*
X55580000Y-26500000D02*
X58500000Y-23580000D01*
X73160520Y-34497460D02*
X73160520Y-25997460D01*
X61040000Y-21040000D02*
X61040000Y-24960000D01*
X57000000Y-29000000D02*
X55000000Y-29000000D01*
X61040000Y-24960000D02*
X57000000Y-29000000D01*
X73160520Y-25997460D02*
X71497460Y-25997460D01*
X63080000Y-19000000D02*
X61040000Y-21040000D01*
X67000000Y-19000000D02*
X63080000Y-19000000D01*
X68000000Y-20000000D02*
X67000000Y-19000000D01*
X68000000Y-22500000D02*
X68000000Y-20000000D01*
X71497460Y-25997460D02*
X68000000Y-22500000D01*
X18960000Y-26500000D02*
X19000000Y-26500000D01*
X19000000Y-26500000D02*
X21500000Y-29000000D01*
X21500000Y-29000000D02*
X55000000Y-29000000D01*
X16460000Y-20000000D02*
X16460000Y-24000000D01*
X16460000Y-24000000D02*
X18960000Y-26500000D01*
X68000000Y-44000000D02*
X66750001Y-42750001D01*
X66750001Y-42750001D02*
X66650001Y-42750001D01*
X66650001Y-42750001D02*
X60600000Y-36700000D01*
X60600000Y-28397980D02*
X63000520Y-25997460D01*
X60600000Y-36700000D02*
X60600000Y-28397980D01*
X65839480Y-21502540D02*
X65839480Y-23158500D01*
X65839480Y-23158500D02*
X63000520Y-25997460D01*
X73000000Y-44000000D02*
X73000000Y-42450000D01*
X73000000Y-42450000D02*
X65839480Y-35289480D01*
X65839480Y-35289480D02*
X65839480Y-34339480D01*
X63000520Y-34497460D02*
X65797460Y-34497460D01*
X65797460Y-34497460D02*
X65997460Y-34497460D01*
X65839480Y-34339480D02*
X65839480Y-30002540D01*
X65997460Y-34497460D02*
X65839480Y-34339480D01*
X26839480Y-23002540D02*
X24542540Y-23002540D01*
X24542540Y-23002540D02*
X21540000Y-20000000D01*
X19000000Y-20000000D02*
X19000000Y-18000000D01*
X24500000Y-17000000D02*
X27000000Y-19500000D01*
X20000000Y-17000000D02*
X24500000Y-17000000D01*
X19000000Y-18000000D02*
X20000000Y-17000000D01*
X31300000Y-47620000D02*
X31300000Y-40000000D01*
X44000000Y-47620000D02*
X44000000Y-49000000D01*
X58620000Y-45500000D02*
X58620000Y-47380000D01*
X32680000Y-49000000D02*
X31300000Y-47620000D01*
X57000000Y-49000000D02*
X44000000Y-49000000D01*
X44000000Y-49000000D02*
X32680000Y-49000000D01*
X58620000Y-47380000D02*
X57000000Y-49000000D01*
X18960000Y-34120000D02*
X18960000Y-41960000D01*
X18960000Y-41960000D02*
X22000000Y-45000000D01*
X22000000Y-45000000D02*
X28680000Y-45000000D01*
X28680000Y-45000000D02*
X31300000Y-47620000D01*
X58620000Y-45500000D02*
X58500000Y-45500000D01*
X60000000Y-40500000D02*
X60000000Y-44120000D01*
X60000000Y-44120000D02*
X58620000Y-45500000D01*
X36380000Y-40000000D02*
X36380000Y-36120000D01*
X47500000Y-40500000D02*
X49840000Y-40500000D01*
X41500000Y-34500000D02*
X47500000Y-40500000D01*
X38000000Y-34500000D02*
X41500000Y-34500000D01*
X36380000Y-36120000D02*
X38000000Y-34500000D01*
X56080000Y-45500000D02*
X56080000Y-44080000D01*
X52500000Y-40500000D02*
X49840000Y-40500000D01*
X56080000Y-44080000D02*
X52500000Y-40500000D01*
X56080000Y-45500000D02*
X56080000Y-46420000D01*
X49000000Y-37000000D02*
X43500000Y-31500000D01*
X38840000Y-37000000D02*
X38840000Y-39920000D01*
X38840000Y-39920000D02*
X38920000Y-40000000D01*
X14000000Y-39000000D02*
X14000000Y-36540000D01*
X14000000Y-36540000D02*
X16420000Y-34120000D01*
X28760000Y-47620000D02*
X20120000Y-47620000D01*
X14000000Y-41500000D02*
X14000000Y-39000000D01*
X20120000Y-47620000D02*
X14000000Y-41500000D01*
X24160000Y-39000000D02*
X24500000Y-39000000D01*
X24500000Y-39000000D02*
X28000000Y-35500000D01*
X37160000Y-19500000D02*
X46500000Y-19500000D01*
X48580000Y-21580000D02*
X48580000Y-23880000D01*
X46500000Y-19500000D02*
X48580000Y-21580000D01*
X21500000Y-26500000D02*
X26840000Y-26500000D01*
X51000000Y-45500000D02*
X38500000Y-45500000D01*
X35160000Y-37420000D02*
X33080000Y-35500000D01*
X35160000Y-42000000D02*
X35160000Y-37420000D01*
X38500000Y-45500000D02*
X35160000Y-42000000D01*
X33080000Y-35500000D02*
X33000000Y-35500000D01*
X44540000Y-30000000D02*
X46040000Y-31500000D01*
X38500000Y-30000000D02*
X44540000Y-30000000D01*
X33000000Y-35500000D02*
X38500000Y-30000000D01*
X33080000Y-35500000D02*
X30540000Y-35500000D01*
X28760000Y-37280000D02*
X30540000Y-35500000D01*
X28760000Y-40000000D02*
X28760000Y-37280000D01*
X41460000Y-40000000D02*
X44000000Y-40000000D01*
X44000000Y-40000000D02*
X47000000Y-43000000D01*
X47000000Y-43000000D02*
X52500000Y-43000000D01*
X52500000Y-43000000D02*
X53540000Y-44040000D01*
X53540000Y-44040000D02*
X53540000Y-45500000D01*
X33840000Y-47620000D02*
X33840000Y-40000000D01*
X37000000Y-26500000D02*
X37000000Y-23003060D01*
X37000000Y-23003060D02*
X34500000Y-20503060D01*
X34500000Y-20503060D02*
X34500000Y-18500000D01*
X34500000Y-18500000D02*
X37000000Y-16000000D01*
X37000000Y-16000000D02*
X56000000Y-16000000D01*
X56000000Y-16000000D02*
X58500000Y-18500000D01*
X75999480Y-30002540D02*
X75999480Y-21502540D01*
X75999480Y-21502540D02*
X70496940Y-16000000D01*
X70496940Y-16000000D02*
X61000000Y-16000000D01*
X61000000Y-16000000D02*
X58500000Y-18500000D01*
M02*
