M48
;DRILL file {KiCad 4.0.2-stable} date Friday, 23 September 2016 15:24:31
;FORMAT={-:-/ absolute / metric / decimal}
FMAT,2
METRIC,TZ
T1C0.701
T2C0.800
T3C0.813
T4C1.001
T5C1.016
T6C1.097
%
G90
G05
M71
T1
X26.839Y-23.003
X36.999Y-23.003
X63.001Y-25.997
X63.001Y-34.497
X65.839Y-21.503
X65.839Y-30.003
X73.161Y-25.997
X73.161Y-34.497
X75.999Y-21.503
X75.999Y-30.003
T2
X16.42Y-26.5
X16.42Y-34.12
X18.96Y-26.5
X18.96Y-34.12
X21.5Y-26.5
X21.5Y-34.12
X28.76Y-40.
X28.76Y-47.62
X31.3Y-40.
X31.3Y-47.62
X33.84Y-40.
X33.84Y-47.62
X36.38Y-40.
X36.38Y-47.62
X38.92Y-40.
X38.92Y-47.62
X41.46Y-40.
X41.46Y-47.62
X43.5Y-23.88
X43.5Y-31.5
X44.Y-40.
X44.Y-47.62
X46.04Y-23.88
X46.04Y-31.5
X48.58Y-23.88
X48.58Y-31.5
X55.Y-26.5
X55.Y-29.
X58.5Y-18.5
X58.5Y-23.58
X61.04Y-21.04
T3
X28.Y-35.5
X30.54Y-35.5
X33.08Y-35.5
T4
X14.Y-39.
X16.46Y-20.
X19.Y-20.
X21.54Y-20.
X24.16Y-39.
X26.84Y-26.5
X27.Y-19.5
X37.Y-26.5
X37.16Y-19.5
X38.84Y-37.
X49.Y-37.
X49.84Y-40.5
X60.Y-40.5
T5
X51.Y-45.5
X53.54Y-45.5
X56.08Y-45.5
X58.62Y-45.5
T6
X68.66Y-45.8
X71.2Y-45.8
T0
M30
