G04 #@! TF.FileFunction,Copper,L2,Bot,Signal*
%FSLAX46Y46*%
G04 Gerber Fmt 4.6, Leading zero omitted, Abs format (unit mm)*
G04 Created by KiCad (PCBNEW 4.0.2-stable) date Friday, 30 September 2016 22:37:06*
%MOMM*%
G01*
G04 APERTURE LIST*
%ADD10C,0.100000*%
%ADD11C,0.300000*%
%ADD12R,1.300000X1.300000*%
%ADD13C,1.300000*%
%ADD14C,1.699260*%
%ADD15R,1.699260X1.699260*%
%ADD16C,1.998980*%
%ADD17C,1.524000*%
%ADD18O,1.600000X1.600000*%
%ADD19R,1.727200X2.032000*%
%ADD20O,1.727200X2.032000*%
%ADD21O,1.501140X2.499360*%
%ADD22R,2.500000X2.500000*%
%ADD23C,2.500000*%
%ADD24O,2.499360X1.501140*%
%ADD25R,1.900000X2.000000*%
%ADD26C,1.900000*%
G04 APERTURE END LIST*
D10*
D11*
X35250000Y-14707143D02*
X35392857Y-14778571D01*
X35678571Y-14778571D01*
X35821428Y-14707143D01*
X35892857Y-14564286D01*
X35892857Y-13992857D01*
X35821428Y-13850000D01*
X35678571Y-13778571D01*
X35392857Y-13778571D01*
X35250000Y-13850000D01*
X35178571Y-13992857D01*
X35178571Y-14135714D01*
X35892857Y-14278571D01*
X34035714Y-13992857D02*
X33821428Y-14064286D01*
X33750000Y-14135714D01*
X33678571Y-14278571D01*
X33678571Y-14492857D01*
X33750000Y-14635714D01*
X33821428Y-14707143D01*
X33964286Y-14778571D01*
X34535714Y-14778571D01*
X34535714Y-13278571D01*
X34035714Y-13278571D01*
X33892857Y-13350000D01*
X33821428Y-13421429D01*
X33750000Y-13564286D01*
X33750000Y-13707143D01*
X33821428Y-13850000D01*
X33892857Y-13921429D01*
X34035714Y-13992857D01*
X34535714Y-13992857D01*
X33035714Y-13278571D02*
X33035714Y-14492857D01*
X32964286Y-14635714D01*
X32892857Y-14707143D01*
X32750000Y-14778571D01*
X32464286Y-14778571D01*
X32321428Y-14707143D01*
X32250000Y-14635714D01*
X32178571Y-14492857D01*
X32178571Y-13278571D01*
X31535714Y-14707143D02*
X31321428Y-14778571D01*
X30964285Y-14778571D01*
X30821428Y-14707143D01*
X30749999Y-14635714D01*
X30678571Y-14492857D01*
X30678571Y-14350000D01*
X30749999Y-14207143D01*
X30821428Y-14135714D01*
X30964285Y-14064286D01*
X31249999Y-13992857D01*
X31392857Y-13921429D01*
X31464285Y-13850000D01*
X31535714Y-13707143D01*
X31535714Y-13564286D01*
X31464285Y-13421429D01*
X31392857Y-13350000D01*
X31249999Y-13278571D01*
X30892857Y-13278571D01*
X30678571Y-13350000D01*
X28964286Y-14350000D02*
X28250000Y-14350000D01*
X29107143Y-14778571D02*
X28607143Y-13278571D01*
X28107143Y-14778571D01*
X26964286Y-14778571D02*
X26964286Y-13278571D01*
X26964286Y-14707143D02*
X27107143Y-14778571D01*
X27392857Y-14778571D01*
X27535715Y-14707143D01*
X27607143Y-14635714D01*
X27678572Y-14492857D01*
X27678572Y-14064286D01*
X27607143Y-13921429D01*
X27535715Y-13850000D01*
X27392857Y-13778571D01*
X27107143Y-13778571D01*
X26964286Y-13850000D01*
X25607143Y-14778571D02*
X25607143Y-13992857D01*
X25678572Y-13850000D01*
X25821429Y-13778571D01*
X26107143Y-13778571D01*
X26250000Y-13850000D01*
X25607143Y-14707143D02*
X25750000Y-14778571D01*
X26107143Y-14778571D01*
X26250000Y-14707143D01*
X26321429Y-14564286D01*
X26321429Y-14421429D01*
X26250000Y-14278571D01*
X26107143Y-14207143D01*
X25750000Y-14207143D01*
X25607143Y-14135714D01*
X24892857Y-13778571D02*
X24892857Y-15278571D01*
X24892857Y-13850000D02*
X24750000Y-13778571D01*
X24464286Y-13778571D01*
X24321429Y-13850000D01*
X24250000Y-13921429D01*
X24178571Y-14064286D01*
X24178571Y-14492857D01*
X24250000Y-14635714D01*
X24321429Y-14707143D01*
X24464286Y-14778571D01*
X24750000Y-14778571D01*
X24892857Y-14707143D01*
X23750000Y-13778571D02*
X23178571Y-13778571D01*
X23535714Y-13278571D02*
X23535714Y-14564286D01*
X23464286Y-14707143D01*
X23321428Y-14778571D01*
X23178571Y-14778571D01*
X22107143Y-14707143D02*
X22250000Y-14778571D01*
X22535714Y-14778571D01*
X22678571Y-14707143D01*
X22750000Y-14564286D01*
X22750000Y-13992857D01*
X22678571Y-13850000D01*
X22535714Y-13778571D01*
X22250000Y-13778571D01*
X22107143Y-13850000D01*
X22035714Y-13992857D01*
X22035714Y-14135714D01*
X22750000Y-14278571D01*
X21392857Y-14778571D02*
X21392857Y-13778571D01*
X21392857Y-14064286D02*
X21321429Y-13921429D01*
X21250000Y-13850000D01*
X21107143Y-13778571D01*
X20964286Y-13778571D01*
D12*
X55000000Y-26500000D03*
D13*
X55000000Y-29000000D03*
D14*
X68997460Y-26939480D03*
D15*
X68997460Y-37099480D03*
D14*
X77797460Y-26939480D03*
D15*
X77797460Y-37099480D03*
D14*
X74802540Y-37060520D03*
D15*
X74802540Y-26900520D03*
D14*
X71802540Y-37060520D03*
D15*
X71802540Y-26900520D03*
D14*
X26839480Y-23002540D03*
D15*
X36999480Y-23002540D03*
D16*
X60000000Y-40500000D03*
X49840000Y-40500000D03*
X49000000Y-37000000D03*
X38840000Y-37000000D03*
X14000000Y-39000000D03*
X24160000Y-39000000D03*
X27000000Y-19500000D03*
X37160000Y-19500000D03*
X37000000Y-26500000D03*
X26840000Y-26500000D03*
D17*
X30540000Y-35500000D03*
X33080000Y-35500000D03*
X28000000Y-35500000D03*
D18*
X44000000Y-40000000D03*
X41460000Y-40000000D03*
X38920000Y-40000000D03*
X36380000Y-40000000D03*
X33840000Y-40000000D03*
X31300000Y-40000000D03*
X28760000Y-40000000D03*
X28760000Y-47620000D03*
X31300000Y-47620000D03*
X33840000Y-47620000D03*
X36380000Y-47620000D03*
X38920000Y-47620000D03*
X41460000Y-47620000D03*
X44000000Y-47620000D03*
X43500000Y-31500000D03*
X46040000Y-31500000D03*
X48580000Y-31500000D03*
X48580000Y-23880000D03*
X46040000Y-23880000D03*
X43500000Y-23880000D03*
X21500000Y-26500000D03*
X18960000Y-26500000D03*
X16420000Y-26500000D03*
X16420000Y-34120000D03*
X18960000Y-34120000D03*
X21500000Y-34120000D03*
D19*
X51000000Y-45500000D03*
D20*
X53540000Y-45500000D03*
X56080000Y-45500000D03*
X58620000Y-45500000D03*
D21*
X19000000Y-20000000D03*
X16460000Y-20000000D03*
X21540000Y-20000000D03*
D22*
X75600000Y-43800000D03*
D23*
X70600000Y-43800000D03*
D24*
X58500000Y-18500000D03*
X58500000Y-15960000D03*
X58500000Y-21040000D03*
D25*
X53600000Y-34300000D03*
D26*
X56140000Y-34300000D03*
D16*
X63200000Y-40400000D03*
X63200000Y-30240000D03*
D11*
X12000000Y-48000000D02*
X12000000Y-50000000D01*
X12000000Y-50000000D02*
X14000000Y-50000000D01*
X78500000Y-50000000D02*
X80000000Y-50000000D01*
X80000000Y-50000000D02*
X80000000Y-48500000D01*
X78500000Y-12000000D02*
X80000000Y-12000000D01*
X80000000Y-12000000D02*
X80000000Y-13500000D01*
X12000000Y-13500000D02*
X12000000Y-12000000D01*
X12000000Y-12000000D02*
X13500000Y-12000000D01*
X58500000Y-21040000D02*
X58500000Y-23000000D01*
X58500000Y-23000000D02*
X55000000Y-26500000D01*
X46040000Y-23880000D02*
X46040000Y-25040000D01*
X47500000Y-26500000D02*
X55580000Y-26500000D01*
X46040000Y-25040000D02*
X47500000Y-26500000D01*
X58500000Y-18500000D02*
X60100000Y-18500000D01*
X61360520Y-19760520D02*
X61360520Y-26939480D01*
X60100000Y-18500000D02*
X61360520Y-19760520D01*
X68997460Y-26939480D02*
X69039480Y-26939480D01*
X69039480Y-26939480D02*
X70900000Y-28800000D01*
X75936940Y-28800000D02*
X77797460Y-26939480D01*
X70900000Y-28800000D02*
X75936940Y-28800000D01*
X55000000Y-29000000D02*
X59300000Y-29000000D01*
X61360520Y-26939480D02*
X68997460Y-26939480D01*
X59300000Y-29000000D02*
X61360520Y-26939480D01*
X57000000Y-29000000D02*
X55000000Y-29000000D01*
X18960000Y-26500000D02*
X19000000Y-26500000D01*
X19000000Y-26500000D02*
X21500000Y-29000000D01*
X21500000Y-29000000D02*
X55000000Y-29000000D01*
X16460000Y-20000000D02*
X16460000Y-24000000D01*
X16460000Y-24000000D02*
X18960000Y-26500000D01*
X70600000Y-43800000D02*
X70600000Y-38702020D01*
X70600000Y-38702020D02*
X68997460Y-37099480D01*
X68997460Y-37099480D02*
X71763580Y-37099480D01*
X71763580Y-37099480D02*
X71802540Y-37060520D01*
X71336420Y-36860520D02*
X71397460Y-36799480D01*
X75600000Y-43800000D02*
X75600000Y-39296940D01*
X75600000Y-39296940D02*
X77797460Y-37099480D01*
X77797460Y-37099480D02*
X74841500Y-37099480D01*
X74841500Y-37099480D02*
X74802540Y-37060520D01*
X26839480Y-23002540D02*
X24542540Y-23002540D01*
X24542540Y-23002540D02*
X21540000Y-20000000D01*
X19000000Y-20000000D02*
X19000000Y-18000000D01*
X24500000Y-17000000D02*
X27000000Y-19500000D01*
X20000000Y-17000000D02*
X24500000Y-17000000D01*
X19000000Y-18000000D02*
X20000000Y-17000000D01*
X31300000Y-47620000D02*
X31300000Y-40000000D01*
X44000000Y-47620000D02*
X44000000Y-49000000D01*
X58620000Y-45500000D02*
X58620000Y-47380000D01*
X32680000Y-49000000D02*
X31300000Y-47620000D01*
X57000000Y-49000000D02*
X44000000Y-49000000D01*
X44000000Y-49000000D02*
X32680000Y-49000000D01*
X58620000Y-47380000D02*
X57000000Y-49000000D01*
X18960000Y-34120000D02*
X18960000Y-41960000D01*
X18960000Y-41960000D02*
X22000000Y-45000000D01*
X22000000Y-45000000D02*
X28680000Y-45000000D01*
X28680000Y-45000000D02*
X31300000Y-47620000D01*
X58620000Y-45500000D02*
X58500000Y-45500000D01*
X60000000Y-40500000D02*
X60000000Y-44120000D01*
X60000000Y-44120000D02*
X58620000Y-45500000D01*
X63200000Y-40400000D02*
X63200000Y-39900000D01*
X63200000Y-39900000D02*
X61100000Y-37800000D01*
X61100000Y-37800000D02*
X55200000Y-37800000D01*
X55200000Y-37800000D02*
X52500000Y-40500000D01*
X36380000Y-40000000D02*
X36380000Y-36120000D01*
X47500000Y-40500000D02*
X49840000Y-40500000D01*
X41500000Y-34500000D02*
X47500000Y-40500000D01*
X38000000Y-34500000D02*
X41500000Y-34500000D01*
X36380000Y-36120000D02*
X38000000Y-34500000D01*
X56080000Y-45500000D02*
X56080000Y-44080000D01*
X52500000Y-40500000D02*
X49840000Y-40500000D01*
X56080000Y-44080000D02*
X52500000Y-40500000D01*
X56080000Y-45500000D02*
X56080000Y-46420000D01*
X49000000Y-37000000D02*
X43500000Y-31500000D01*
X38840000Y-37000000D02*
X38840000Y-39920000D01*
X38840000Y-39920000D02*
X38920000Y-40000000D01*
X14000000Y-39000000D02*
X14000000Y-36540000D01*
X14000000Y-36540000D02*
X16420000Y-34120000D01*
X28760000Y-47620000D02*
X20120000Y-47620000D01*
X14000000Y-41500000D02*
X14000000Y-39000000D01*
X20120000Y-47620000D02*
X14000000Y-41500000D01*
X24160000Y-39000000D02*
X24500000Y-39000000D01*
X24500000Y-39000000D02*
X28000000Y-35500000D01*
X37160000Y-19500000D02*
X46500000Y-19500000D01*
X48580000Y-21580000D02*
X48580000Y-23880000D01*
X46500000Y-19500000D02*
X48580000Y-21580000D01*
X21500000Y-26500000D02*
X26840000Y-26500000D01*
X53600000Y-34300000D02*
X48840000Y-34300000D01*
X48840000Y-34300000D02*
X46040000Y-31500000D01*
X51000000Y-45500000D02*
X38500000Y-45500000D01*
X35160000Y-37420000D02*
X33080000Y-35500000D01*
X35160000Y-42000000D02*
X35160000Y-37420000D01*
X38500000Y-45500000D02*
X35160000Y-42000000D01*
X33080000Y-35500000D02*
X33000000Y-35500000D01*
X44540000Y-30000000D02*
X46040000Y-31500000D01*
X38500000Y-30000000D02*
X44540000Y-30000000D01*
X33000000Y-35500000D02*
X38500000Y-30000000D01*
X33080000Y-35500000D02*
X30540000Y-35500000D01*
X28760000Y-37280000D02*
X30540000Y-35500000D01*
X28760000Y-40000000D02*
X28760000Y-37280000D01*
X41460000Y-40000000D02*
X44000000Y-40000000D01*
X44000000Y-40000000D02*
X47000000Y-43000000D01*
X47000000Y-43000000D02*
X52500000Y-43000000D01*
X52500000Y-43000000D02*
X53540000Y-44040000D01*
X53540000Y-44040000D02*
X53540000Y-45500000D01*
X33840000Y-47620000D02*
X33840000Y-40000000D01*
X74802540Y-26900520D02*
X71802540Y-26900520D01*
X71802540Y-26900520D02*
X60862020Y-15960000D01*
X60862020Y-15960000D02*
X58500000Y-15960000D01*
X58500000Y-15960000D02*
X58460000Y-16000000D01*
X58460000Y-16000000D02*
X37000000Y-16000000D01*
X34500000Y-20503060D02*
X34500000Y-18500000D01*
X34500000Y-18500000D02*
X37000000Y-16000000D01*
X37000000Y-23003060D02*
X34500000Y-20503060D01*
X37000000Y-26500000D02*
X37000000Y-23003060D01*
X56140000Y-34300000D02*
X59140000Y-34300000D01*
X59140000Y-34300000D02*
X63200000Y-30240000D01*
M02*
