G04 #@! TF.FileFunction,Legend,Top*
%FSLAX46Y46*%
G04 Gerber Fmt 4.6, Leading zero omitted, Abs format (unit mm)*
G04 Created by KiCad (PCBNEW 4.0.2-stable) date Friday, 30 September 2016 22:37:06*
%MOMM*%
G01*
G04 APERTURE LIST*
%ADD10C,0.100000*%
%ADD11C,0.150000*%
G04 APERTURE END LIST*
D10*
D11*
X57499000Y-27825000D02*
X52501000Y-27825000D01*
X57491000Y-27965000D02*
X52509000Y-27965000D01*
X57475000Y-28105000D02*
X55095000Y-28105000D01*
X54905000Y-28105000D02*
X52525000Y-28105000D01*
X57451000Y-28245000D02*
X55490000Y-28245000D01*
X54510000Y-28245000D02*
X52549000Y-28245000D01*
X57418000Y-28385000D02*
X55657000Y-28385000D01*
X54343000Y-28385000D02*
X52582000Y-28385000D01*
X57377000Y-28525000D02*
X55764000Y-28525000D01*
X54236000Y-28525000D02*
X52623000Y-28525000D01*
X57327000Y-28665000D02*
X55835000Y-28665000D01*
X54165000Y-28665000D02*
X52673000Y-28665000D01*
X57266000Y-28805000D02*
X55879000Y-28805000D01*
X54121000Y-28805000D02*
X52734000Y-28805000D01*
X57196000Y-28945000D02*
X55898000Y-28945000D01*
X54102000Y-28945000D02*
X52804000Y-28945000D01*
X57114000Y-29085000D02*
X55896000Y-29085000D01*
X54104000Y-29085000D02*
X52886000Y-29085000D01*
X57019000Y-29225000D02*
X55871000Y-29225000D01*
X54129000Y-29225000D02*
X52981000Y-29225000D01*
X56908000Y-29365000D02*
X55823000Y-29365000D01*
X54177000Y-29365000D02*
X53092000Y-29365000D01*
X56780000Y-29505000D02*
X55745000Y-29505000D01*
X54255000Y-29505000D02*
X53220000Y-29505000D01*
X56631000Y-29645000D02*
X55628000Y-29645000D01*
X54372000Y-29645000D02*
X53369000Y-29645000D01*
X56452000Y-29785000D02*
X55440000Y-29785000D01*
X54560000Y-29785000D02*
X53548000Y-29785000D01*
X56233000Y-29925000D02*
X53767000Y-29925000D01*
X55944000Y-30065000D02*
X54056000Y-30065000D01*
X55472000Y-30205000D02*
X54528000Y-30205000D01*
X55900000Y-29000000D02*
G75*
G03X55900000Y-29000000I-900000J0D01*
G01*
X57537500Y-27750000D02*
G75*
G03X57537500Y-27750000I-2537500J0D01*
G01*
X68997460Y-29733480D02*
X68997460Y-28336480D01*
X68997460Y-34178480D02*
X68997460Y-35702480D01*
X68235460Y-33797480D02*
X69759460Y-33797480D01*
X68235460Y-34051480D02*
X69759460Y-34051480D01*
X68997460Y-34305480D02*
X69759460Y-34305480D01*
X69759460Y-34305480D02*
X69759460Y-29733480D01*
X69759460Y-29733480D02*
X68235460Y-29733480D01*
X68235460Y-29733480D02*
X68235460Y-34305480D01*
X68235460Y-34305480D02*
X68997460Y-34305480D01*
X77797460Y-29733480D02*
X77797460Y-28336480D01*
X77797460Y-34178480D02*
X77797460Y-35702480D01*
X77035460Y-33797480D02*
X78559460Y-33797480D01*
X77035460Y-34051480D02*
X78559460Y-34051480D01*
X77797460Y-34305480D02*
X78559460Y-34305480D01*
X78559460Y-34305480D02*
X78559460Y-29733480D01*
X78559460Y-29733480D02*
X77035460Y-29733480D01*
X77035460Y-29733480D02*
X77035460Y-34305480D01*
X77035460Y-34305480D02*
X77797460Y-34305480D01*
X74802540Y-34266520D02*
X74802540Y-35663520D01*
X74802540Y-29821520D02*
X74802540Y-28297520D01*
X75564540Y-30202520D02*
X74040540Y-30202520D01*
X75564540Y-29948520D02*
X74040540Y-29948520D01*
X74802540Y-29694520D02*
X74040540Y-29694520D01*
X74040540Y-29694520D02*
X74040540Y-34266520D01*
X74040540Y-34266520D02*
X75564540Y-34266520D01*
X75564540Y-34266520D02*
X75564540Y-29694520D01*
X75564540Y-29694520D02*
X74802540Y-29694520D01*
X71802540Y-34266520D02*
X71802540Y-35663520D01*
X71802540Y-29821520D02*
X71802540Y-28297520D01*
X72564540Y-30202520D02*
X71040540Y-30202520D01*
X72564540Y-29948520D02*
X71040540Y-29948520D01*
X71802540Y-29694520D02*
X71040540Y-29694520D01*
X71040540Y-29694520D02*
X71040540Y-34266520D01*
X71040540Y-34266520D02*
X72564540Y-34266520D01*
X72564540Y-34266520D02*
X72564540Y-29694520D01*
X72564540Y-29694520D02*
X71802540Y-29694520D01*
X29633480Y-23002540D02*
X28236480Y-23002540D01*
X34078480Y-23002540D02*
X35602480Y-23002540D01*
X33697480Y-23764540D02*
X33697480Y-22240540D01*
X33951480Y-23764540D02*
X33951480Y-22240540D01*
X34205480Y-23002540D02*
X34205480Y-22240540D01*
X34205480Y-22240540D02*
X29633480Y-22240540D01*
X29633480Y-22240540D02*
X29633480Y-23764540D01*
X29633480Y-23764540D02*
X34205480Y-23764540D01*
X34205480Y-23764540D02*
X34205480Y-23002540D01*
X57460000Y-41770000D02*
X52380000Y-41770000D01*
X52380000Y-41770000D02*
X52380000Y-39230000D01*
X52380000Y-39230000D02*
X57460000Y-39230000D01*
X57460000Y-39230000D02*
X57460000Y-41770000D01*
X57460000Y-40500000D02*
X58730000Y-40500000D01*
X52380000Y-40500000D02*
X51110000Y-40500000D01*
X46460000Y-38270000D02*
X41380000Y-38270000D01*
X41380000Y-38270000D02*
X41380000Y-35730000D01*
X41380000Y-35730000D02*
X46460000Y-35730000D01*
X46460000Y-35730000D02*
X46460000Y-38270000D01*
X46460000Y-37000000D02*
X47730000Y-37000000D01*
X41380000Y-37000000D02*
X40110000Y-37000000D01*
X16540000Y-37730000D02*
X21620000Y-37730000D01*
X21620000Y-37730000D02*
X21620000Y-40270000D01*
X21620000Y-40270000D02*
X16540000Y-40270000D01*
X16540000Y-40270000D02*
X16540000Y-37730000D01*
X16540000Y-39000000D02*
X15270000Y-39000000D01*
X21620000Y-39000000D02*
X22890000Y-39000000D01*
X29540000Y-18230000D02*
X34620000Y-18230000D01*
X34620000Y-18230000D02*
X34620000Y-20770000D01*
X34620000Y-20770000D02*
X29540000Y-20770000D01*
X29540000Y-20770000D02*
X29540000Y-18230000D01*
X29540000Y-19500000D02*
X28270000Y-19500000D01*
X34620000Y-19500000D02*
X35890000Y-19500000D01*
X34460000Y-27770000D02*
X29380000Y-27770000D01*
X29380000Y-27770000D02*
X29380000Y-25230000D01*
X29380000Y-25230000D02*
X34460000Y-25230000D01*
X34460000Y-25230000D02*
X34460000Y-27770000D01*
X34460000Y-26500000D02*
X35730000Y-26500000D01*
X29380000Y-26500000D02*
X28110000Y-26500000D01*
X26984000Y-33468000D02*
X26984000Y-34738000D01*
X27771400Y-34217300D02*
X27733300Y-33963300D01*
X27733300Y-33963300D02*
X27555500Y-33683900D01*
X27555500Y-33683900D02*
X27238000Y-33468000D01*
X27238000Y-33468000D02*
X26793500Y-33455300D01*
X26793500Y-33455300D02*
X26437900Y-33658500D01*
X26437900Y-33658500D02*
X26260100Y-33950600D01*
X26260100Y-33950600D02*
X26209300Y-34268100D01*
X26209300Y-34268100D02*
X26310900Y-34674500D01*
X26310900Y-34674500D02*
X26653800Y-34928500D01*
X26653800Y-34928500D02*
X26831600Y-35017400D01*
X35366000Y-37278000D02*
X25714000Y-37278000D01*
X25714000Y-34230000D02*
X25714000Y-32960000D01*
X25714000Y-32960000D02*
X35366000Y-32960000D01*
X35366000Y-32960000D02*
X35366000Y-38040000D01*
X25714000Y-38040000D02*
X25714000Y-35500000D01*
X25714000Y-35500000D02*
X25714000Y-34230000D01*
X46295000Y-40135000D02*
X45025000Y-40135000D01*
X46295000Y-47485000D02*
X45025000Y-47485000D01*
X26465000Y-47485000D02*
X27735000Y-47485000D01*
X26465000Y-40135000D02*
X27735000Y-40135000D01*
X46295000Y-40135000D02*
X46295000Y-47485000D01*
X26465000Y-40135000D02*
X26465000Y-47485000D01*
X45025000Y-40135000D02*
X45025000Y-39200000D01*
X41205000Y-31365000D02*
X42475000Y-31365000D01*
X41205000Y-24015000D02*
X42475000Y-24015000D01*
X50875000Y-24015000D02*
X49605000Y-24015000D01*
X50875000Y-31365000D02*
X49605000Y-31365000D01*
X41205000Y-31365000D02*
X41205000Y-24015000D01*
X50875000Y-31365000D02*
X50875000Y-24015000D01*
X42475000Y-31365000D02*
X42475000Y-32300000D01*
X23795000Y-26635000D02*
X22525000Y-26635000D01*
X23795000Y-33985000D02*
X22525000Y-33985000D01*
X14125000Y-33985000D02*
X15395000Y-33985000D01*
X14125000Y-26635000D02*
X15395000Y-26635000D01*
X23795000Y-26635000D02*
X23795000Y-33985000D01*
X14125000Y-26635000D02*
X14125000Y-33985000D01*
X22525000Y-26635000D02*
X22525000Y-25700000D01*
X52270000Y-46770000D02*
X59890000Y-46770000D01*
X52270000Y-44230000D02*
X59890000Y-44230000D01*
X49450000Y-43950000D02*
X51000000Y-43950000D01*
X59890000Y-46770000D02*
X59890000Y-44230000D01*
X52270000Y-44230000D02*
X52270000Y-46770000D01*
X51000000Y-47050000D02*
X49450000Y-47050000D01*
X49450000Y-47050000D02*
X49450000Y-43950000D01*
X17476000Y-16952000D02*
X17476000Y-18095000D01*
X20524000Y-16952000D02*
X20524000Y-18095000D01*
X24334000Y-18095000D02*
X24334000Y-21778000D01*
X24334000Y-21778000D02*
X13666000Y-21778000D01*
X13666000Y-21778000D02*
X13666000Y-18095000D01*
X24334000Y-16952000D02*
X24334000Y-18095000D01*
X24334000Y-18095000D02*
X13666000Y-18095000D01*
X13666000Y-18095000D02*
X13666000Y-16952000D01*
X19000000Y-16952000D02*
X13666000Y-16952000D01*
X19000000Y-16952000D02*
X24334000Y-16952000D01*
X73100000Y-39700000D02*
X73100000Y-39200000D01*
X72600000Y-43700000D02*
G75*
G03X72600000Y-43700000I-2000000J0D01*
G01*
X77600000Y-43700000D02*
G75*
G03X77600000Y-43700000I-2000000J0D01*
G01*
X78100000Y-41200000D02*
X68100000Y-41200000D01*
X78100000Y-46100000D02*
X68100000Y-46100000D01*
X78100000Y-39700000D02*
X68100000Y-39700000D01*
X78100000Y-39200000D02*
X68100000Y-39200000D01*
X68100000Y-39200000D02*
X68100000Y-49000000D01*
X68100000Y-49000000D02*
X78100000Y-49000000D01*
X78100000Y-49000000D02*
X78100000Y-39200000D01*
X77778472Y-18500000D02*
G75*
G03X77778472Y-18500000I-2514472J0D01*
G01*
X62183000Y-15960000D02*
X60405000Y-15960000D01*
X62183000Y-18500000D02*
X60405000Y-18500000D01*
X62183000Y-21040000D02*
X60405000Y-21040000D01*
X70692000Y-23834000D02*
X78693000Y-23834000D01*
X78693000Y-23834000D02*
X78693000Y-13166000D01*
X78693000Y-13166000D02*
X70692000Y-13166000D01*
X62183000Y-23834000D02*
X70692000Y-23834000D01*
X70692000Y-23834000D02*
X70692000Y-13166000D01*
X70692000Y-13166000D02*
X62183000Y-13166000D01*
X62183000Y-18500000D02*
X62183000Y-13166000D01*
X62183000Y-18500000D02*
X62183000Y-23834000D01*
X52385112Y-35824904D02*
G75*
G03X52370000Y-32800000I2484888J1524904D01*
G01*
X52370000Y-35800000D02*
X52370000Y-32800000D01*
X57387936Y-34300000D02*
G75*
G03X57387936Y-34300000I-2517936J0D01*
G01*
X61930000Y-37860000D02*
X61930000Y-32780000D01*
X61930000Y-32780000D02*
X64470000Y-32780000D01*
X64470000Y-32780000D02*
X64470000Y-37860000D01*
X64470000Y-37860000D02*
X61930000Y-37860000D01*
X63200000Y-37860000D02*
X63200000Y-39130000D01*
X63200000Y-32780000D02*
X63200000Y-31510000D01*
X59157143Y-27916666D02*
X59204762Y-27964285D01*
X59252381Y-28107142D01*
X59252381Y-28202380D01*
X59204762Y-28345238D01*
X59109524Y-28440476D01*
X59014286Y-28488095D01*
X58823810Y-28535714D01*
X58680952Y-28535714D01*
X58490476Y-28488095D01*
X58395238Y-28440476D01*
X58300000Y-28345238D01*
X58252381Y-28202380D01*
X58252381Y-28107142D01*
X58300000Y-27964285D01*
X58347619Y-27916666D01*
X59252381Y-26964285D02*
X59252381Y-27535714D01*
X59252381Y-27250000D02*
X58252381Y-27250000D01*
X58395238Y-27345238D01*
X58490476Y-27440476D01*
X58538095Y-27535714D01*
X69452381Y-32838095D02*
X68452381Y-32838095D01*
X68452381Y-32600000D01*
X68500000Y-32457142D01*
X68595238Y-32361904D01*
X68690476Y-32314285D01*
X68880952Y-32266666D01*
X69023810Y-32266666D01*
X69214286Y-32314285D01*
X69309524Y-32361904D01*
X69404762Y-32457142D01*
X69452381Y-32600000D01*
X69452381Y-32838095D01*
X69452381Y-31314285D02*
X69452381Y-31885714D01*
X69452381Y-31600000D02*
X68452381Y-31600000D01*
X68595238Y-31695238D01*
X68690476Y-31790476D01*
X68738095Y-31885714D01*
X78252381Y-32338095D02*
X77252381Y-32338095D01*
X77252381Y-32100000D01*
X77300000Y-31957142D01*
X77395238Y-31861904D01*
X77490476Y-31814285D01*
X77680952Y-31766666D01*
X77823810Y-31766666D01*
X78014286Y-31814285D01*
X78109524Y-31861904D01*
X78204762Y-31957142D01*
X78252381Y-32100000D01*
X78252381Y-32338095D01*
X77347619Y-31385714D02*
X77300000Y-31338095D01*
X77252381Y-31242857D01*
X77252381Y-31004761D01*
X77300000Y-30909523D01*
X77347619Y-30861904D01*
X77442857Y-30814285D01*
X77538095Y-30814285D01*
X77680952Y-30861904D01*
X78252381Y-31433333D01*
X78252381Y-30814285D01*
X75252381Y-33138095D02*
X74252381Y-33138095D01*
X74252381Y-32900000D01*
X74300000Y-32757142D01*
X74395238Y-32661904D01*
X74490476Y-32614285D01*
X74680952Y-32566666D01*
X74823810Y-32566666D01*
X75014286Y-32614285D01*
X75109524Y-32661904D01*
X75204762Y-32757142D01*
X75252381Y-32900000D01*
X75252381Y-33138095D01*
X74252381Y-32233333D02*
X74252381Y-31614285D01*
X74633333Y-31947619D01*
X74633333Y-31804761D01*
X74680952Y-31709523D01*
X74728571Y-31661904D01*
X74823810Y-31614285D01*
X75061905Y-31614285D01*
X75157143Y-31661904D01*
X75204762Y-31709523D01*
X75252381Y-31804761D01*
X75252381Y-32090476D01*
X75204762Y-32185714D01*
X75157143Y-32233333D01*
X72252381Y-32638095D02*
X71252381Y-32638095D01*
X71252381Y-32400000D01*
X71300000Y-32257142D01*
X71395238Y-32161904D01*
X71490476Y-32114285D01*
X71680952Y-32066666D01*
X71823810Y-32066666D01*
X72014286Y-32114285D01*
X72109524Y-32161904D01*
X72204762Y-32257142D01*
X72252381Y-32400000D01*
X72252381Y-32638095D01*
X71585714Y-31209523D02*
X72252381Y-31209523D01*
X71204762Y-31447619D02*
X71919048Y-31685714D01*
X71919048Y-31066666D01*
X30761905Y-23452381D02*
X30761905Y-22452381D01*
X31000000Y-22452381D01*
X31142858Y-22500000D01*
X31238096Y-22595238D01*
X31285715Y-22690476D01*
X31333334Y-22880952D01*
X31333334Y-23023810D01*
X31285715Y-23214286D01*
X31238096Y-23309524D01*
X31142858Y-23404762D01*
X31000000Y-23452381D01*
X30761905Y-23452381D01*
X32238096Y-22452381D02*
X31761905Y-22452381D01*
X31714286Y-22928571D01*
X31761905Y-22880952D01*
X31857143Y-22833333D01*
X32095239Y-22833333D01*
X32190477Y-22880952D01*
X32238096Y-22928571D01*
X32285715Y-23023810D01*
X32285715Y-23261905D01*
X32238096Y-23357143D01*
X32190477Y-23404762D01*
X32095239Y-23452381D01*
X31857143Y-23452381D01*
X31761905Y-23404762D01*
X31714286Y-23357143D01*
X54833334Y-40952381D02*
X54500000Y-40476190D01*
X54261905Y-40952381D02*
X54261905Y-39952381D01*
X54642858Y-39952381D01*
X54738096Y-40000000D01*
X54785715Y-40047619D01*
X54833334Y-40142857D01*
X54833334Y-40285714D01*
X54785715Y-40380952D01*
X54738096Y-40428571D01*
X54642858Y-40476190D01*
X54261905Y-40476190D01*
X55785715Y-40952381D02*
X55214286Y-40952381D01*
X55500000Y-40952381D02*
X55500000Y-39952381D01*
X55404762Y-40095238D01*
X55309524Y-40190476D01*
X55214286Y-40238095D01*
X43833334Y-37452381D02*
X43500000Y-36976190D01*
X43261905Y-37452381D02*
X43261905Y-36452381D01*
X43642858Y-36452381D01*
X43738096Y-36500000D01*
X43785715Y-36547619D01*
X43833334Y-36642857D01*
X43833334Y-36785714D01*
X43785715Y-36880952D01*
X43738096Y-36928571D01*
X43642858Y-36976190D01*
X43261905Y-36976190D01*
X44214286Y-36547619D02*
X44261905Y-36500000D01*
X44357143Y-36452381D01*
X44595239Y-36452381D01*
X44690477Y-36500000D01*
X44738096Y-36547619D01*
X44785715Y-36642857D01*
X44785715Y-36738095D01*
X44738096Y-36880952D01*
X44166667Y-37452381D01*
X44785715Y-37452381D01*
X18833334Y-39452381D02*
X18500000Y-38976190D01*
X18261905Y-39452381D02*
X18261905Y-38452381D01*
X18642858Y-38452381D01*
X18738096Y-38500000D01*
X18785715Y-38547619D01*
X18833334Y-38642857D01*
X18833334Y-38785714D01*
X18785715Y-38880952D01*
X18738096Y-38928571D01*
X18642858Y-38976190D01*
X18261905Y-38976190D01*
X19166667Y-38452381D02*
X19785715Y-38452381D01*
X19452381Y-38833333D01*
X19595239Y-38833333D01*
X19690477Y-38880952D01*
X19738096Y-38928571D01*
X19785715Y-39023810D01*
X19785715Y-39261905D01*
X19738096Y-39357143D01*
X19690477Y-39404762D01*
X19595239Y-39452381D01*
X19309524Y-39452381D01*
X19214286Y-39404762D01*
X19166667Y-39357143D01*
X31833334Y-19952381D02*
X31500000Y-19476190D01*
X31261905Y-19952381D02*
X31261905Y-18952381D01*
X31642858Y-18952381D01*
X31738096Y-19000000D01*
X31785715Y-19047619D01*
X31833334Y-19142857D01*
X31833334Y-19285714D01*
X31785715Y-19380952D01*
X31738096Y-19428571D01*
X31642858Y-19476190D01*
X31261905Y-19476190D01*
X32690477Y-19285714D02*
X32690477Y-19952381D01*
X32452381Y-18904762D02*
X32214286Y-19619048D01*
X32833334Y-19619048D01*
X31333334Y-26952381D02*
X31000000Y-26476190D01*
X30761905Y-26952381D02*
X30761905Y-25952381D01*
X31142858Y-25952381D01*
X31238096Y-26000000D01*
X31285715Y-26047619D01*
X31333334Y-26142857D01*
X31333334Y-26285714D01*
X31285715Y-26380952D01*
X31238096Y-26428571D01*
X31142858Y-26476190D01*
X30761905Y-26476190D01*
X32238096Y-25952381D02*
X31761905Y-25952381D01*
X31714286Y-26428571D01*
X31761905Y-26380952D01*
X31857143Y-26333333D01*
X32095239Y-26333333D01*
X32190477Y-26380952D01*
X32238096Y-26428571D01*
X32285715Y-26523810D01*
X32285715Y-26761905D01*
X32238096Y-26857143D01*
X32190477Y-26904762D01*
X32095239Y-26952381D01*
X31857143Y-26952381D01*
X31761905Y-26904762D01*
X31714286Y-26857143D01*
X29904762Y-34452381D02*
X29571428Y-33976190D01*
X29333333Y-34452381D02*
X29333333Y-33452381D01*
X29714286Y-33452381D01*
X29809524Y-33500000D01*
X29857143Y-33547619D01*
X29904762Y-33642857D01*
X29904762Y-33785714D01*
X29857143Y-33880952D01*
X29809524Y-33928571D01*
X29714286Y-33976190D01*
X29333333Y-33976190D01*
X30190476Y-33452381D02*
X30523809Y-34452381D01*
X30857143Y-33452381D01*
X31714286Y-34452381D02*
X31142857Y-34452381D01*
X31428571Y-34452381D02*
X31428571Y-33452381D01*
X31333333Y-33595238D01*
X31238095Y-33690476D01*
X31142857Y-33738095D01*
X48672381Y-40761905D02*
X49481905Y-40761905D01*
X49577143Y-40714286D01*
X49624762Y-40666667D01*
X49672381Y-40571429D01*
X49672381Y-40380952D01*
X49624762Y-40285714D01*
X49577143Y-40238095D01*
X49481905Y-40190476D01*
X48672381Y-40190476D01*
X49672381Y-39190476D02*
X49672381Y-39761905D01*
X49672381Y-39476191D02*
X48672381Y-39476191D01*
X48815238Y-39571429D01*
X48910476Y-39666667D01*
X48958095Y-39761905D01*
X37732381Y-32261905D02*
X38541905Y-32261905D01*
X38637143Y-32214286D01*
X38684762Y-32166667D01*
X38732381Y-32071429D01*
X38732381Y-31880952D01*
X38684762Y-31785714D01*
X38637143Y-31738095D01*
X38541905Y-31690476D01*
X37732381Y-31690476D01*
X37827619Y-31261905D02*
X37780000Y-31214286D01*
X37732381Y-31119048D01*
X37732381Y-30880952D01*
X37780000Y-30785714D01*
X37827619Y-30738095D01*
X37922857Y-30690476D01*
X38018095Y-30690476D01*
X38160952Y-30738095D01*
X38732381Y-31309524D01*
X38732381Y-30690476D01*
X26172381Y-27261905D02*
X26981905Y-27261905D01*
X27077143Y-27214286D01*
X27124762Y-27166667D01*
X27172381Y-27071429D01*
X27172381Y-26880952D01*
X27124762Y-26785714D01*
X27077143Y-26738095D01*
X26981905Y-26690476D01*
X26172381Y-26690476D01*
X26505714Y-25785714D02*
X27172381Y-25785714D01*
X26124762Y-26023810D02*
X26839048Y-26261905D01*
X26839048Y-25642857D01*
X46352381Y-46238095D02*
X45352381Y-46238095D01*
X45352381Y-45857142D01*
X45400000Y-45761904D01*
X45447619Y-45714285D01*
X45542857Y-45666666D01*
X45685714Y-45666666D01*
X45780952Y-45714285D01*
X45828571Y-45761904D01*
X45876190Y-45857142D01*
X45876190Y-46238095D01*
X46352381Y-44714285D02*
X46352381Y-45285714D01*
X46352381Y-45000000D02*
X45352381Y-45000000D01*
X45495238Y-45095238D01*
X45590476Y-45190476D01*
X45638095Y-45285714D01*
X18904762Y-16547619D02*
X18809524Y-16500000D01*
X18714286Y-16404762D01*
X18571429Y-16261905D01*
X18476190Y-16214286D01*
X18380952Y-16214286D01*
X18428571Y-16452381D02*
X18333333Y-16404762D01*
X18238095Y-16309524D01*
X18190476Y-16119048D01*
X18190476Y-15785714D01*
X18238095Y-15595238D01*
X18333333Y-15500000D01*
X18428571Y-15452381D01*
X18619048Y-15452381D01*
X18714286Y-15500000D01*
X18809524Y-15595238D01*
X18857143Y-15785714D01*
X18857143Y-16119048D01*
X18809524Y-16309524D01*
X18714286Y-16404762D01*
X18619048Y-16452381D01*
X18428571Y-16452381D01*
X19809524Y-16452381D02*
X19238095Y-16452381D01*
X19523809Y-16452381D02*
X19523809Y-15452381D01*
X19428571Y-15595238D01*
X19333333Y-15690476D01*
X19238095Y-15738095D01*
X72361905Y-38352381D02*
X72361905Y-37352381D01*
X72742858Y-37352381D01*
X72838096Y-37400000D01*
X72885715Y-37447619D01*
X72933334Y-37542857D01*
X72933334Y-37685714D01*
X72885715Y-37780952D01*
X72838096Y-37828571D01*
X72742858Y-37876190D01*
X72361905Y-37876190D01*
X73314286Y-37447619D02*
X73361905Y-37400000D01*
X73457143Y-37352381D01*
X73695239Y-37352381D01*
X73790477Y-37400000D01*
X73838096Y-37447619D01*
X73885715Y-37542857D01*
X73885715Y-37638095D01*
X73838096Y-37780952D01*
X73266667Y-38352381D01*
X73885715Y-38352381D01*
X80253581Y-19261905D02*
X81063105Y-19261905D01*
X81158343Y-19214286D01*
X81205962Y-19166667D01*
X81253581Y-19071429D01*
X81253581Y-18880952D01*
X81205962Y-18785714D01*
X81158343Y-18738095D01*
X81063105Y-18690476D01*
X80253581Y-18690476D01*
X80253581Y-18309524D02*
X80253581Y-17690476D01*
X80634533Y-18023810D01*
X80634533Y-17880952D01*
X80682152Y-17785714D01*
X80729771Y-17738095D01*
X80825010Y-17690476D01*
X81063105Y-17690476D01*
X81158343Y-17738095D01*
X81205962Y-17785714D01*
X81253581Y-17880952D01*
X81253581Y-18166667D01*
X81205962Y-18261905D01*
X81158343Y-18309524D01*
X54385905Y-38816381D02*
X54385905Y-37816381D01*
X54624000Y-37816381D01*
X54766858Y-37864000D01*
X54862096Y-37959238D01*
X54909715Y-38054476D01*
X54957334Y-38244952D01*
X54957334Y-38387810D01*
X54909715Y-38578286D01*
X54862096Y-38673524D01*
X54766858Y-38768762D01*
X54624000Y-38816381D01*
X54385905Y-38816381D01*
X55814477Y-37816381D02*
X55624000Y-37816381D01*
X55528762Y-37864000D01*
X55481143Y-37911619D01*
X55385905Y-38054476D01*
X55338286Y-38244952D01*
X55338286Y-38625905D01*
X55385905Y-38721143D01*
X55433524Y-38768762D01*
X55528762Y-38816381D01*
X55719239Y-38816381D01*
X55814477Y-38768762D01*
X55862096Y-38721143D01*
X55909715Y-38625905D01*
X55909715Y-38387810D01*
X55862096Y-38292571D01*
X55814477Y-38244952D01*
X55719239Y-38197333D01*
X55528762Y-38197333D01*
X55433524Y-38244952D01*
X55385905Y-38292571D01*
X55338286Y-38387810D01*
X51433095Y-36657381D02*
X51433095Y-35657381D01*
X52004524Y-36657381D02*
X51575952Y-36085952D01*
X52004524Y-35657381D02*
X51433095Y-36228810D01*
X60152261Y-35237746D02*
X59676070Y-35571080D01*
X60152261Y-35809175D02*
X59152261Y-35809175D01*
X59152261Y-35428222D01*
X59199880Y-35332984D01*
X59247499Y-35285365D01*
X59342737Y-35237746D01*
X59485594Y-35237746D01*
X59580832Y-35285365D01*
X59628451Y-35332984D01*
X59676070Y-35428222D01*
X59676070Y-35809175D01*
X59152261Y-34380603D02*
X59152261Y-34571080D01*
X59199880Y-34666318D01*
X59247499Y-34713937D01*
X59390356Y-34809175D01*
X59580832Y-34856794D01*
X59961785Y-34856794D01*
X60057023Y-34809175D01*
X60104642Y-34761556D01*
X60152261Y-34666318D01*
X60152261Y-34475841D01*
X60104642Y-34380603D01*
X60057023Y-34332984D01*
X59961785Y-34285365D01*
X59723690Y-34285365D01*
X59628451Y-34332984D01*
X59580832Y-34380603D01*
X59533213Y-34475841D01*
X59533213Y-34666318D01*
X59580832Y-34761556D01*
X59628451Y-34809175D01*
X59723690Y-34856794D01*
M02*
